<mxfile host="app.diagrams.net" modified="2023-08-18T13:30:48.711Z" agent="Mozilla/5.0 (Windows NT 10.0; Win64; x64) AppleWebKit/537.36 (KHTML, like Gecko) Chrome/115.0.0.0 Safari/537.36" etag="clrGrjGNYcjGGShgMLIE" version="21.6.8" type="device">
  <diagram id="a45cf8ec-cd66-6f27-3ac3-be6e809c9e4a" name="Page-1">
    <mxGraphModel dx="4153" dy="1623" grid="1" gridSize="10" guides="0" tooltips="1" connect="1" arrows="1" fold="1" page="1" pageScale="1" pageWidth="827" pageHeight="1169" background="none" math="0" shadow="0">
      <root>
        <mxCell id="0" />
        <mxCell id="1" parent="0" />
        <mxCell id="gTKwi0WtYb4K1l9GXwkQ-275" value="" style="points=[[0,0.64,0],[0.2,0.15,0],[0.4,0.01,0],[0.79,0.25,0],[1,0.65,0],[0.8,0.86,0],[0.41,1,0],[0.16,0.86,0]];verticalLabelPosition=bottom;html=1;verticalAlign=top;aspect=fixed;align=center;pointerEvents=1;shape=mxgraph.cisco19.cloud;fillColor=#6B6B6B;strokeColor=none;" parent="1" vertex="1">
          <mxGeometry x="150" y="1050" width="500" height="300" as="geometry" />
        </mxCell>
        <mxCell id="gTKwi0WtYb4K1l9GXwkQ-252" value="" style="rounded=0;whiteSpace=wrap;html=1;fontSize=18;" parent="1" vertex="1">
          <mxGeometry x="2450" y="490" width="350" height="200" as="geometry" />
        </mxCell>
        <mxCell id="JUatKGLZlm-w2R9bg3sv-183" value="" style="rounded=0;whiteSpace=wrap;html=1;" parent="1" vertex="1">
          <mxGeometry x="110" y="1611" width="1350" height="1035" as="geometry" />
        </mxCell>
        <mxCell id="168" value="ENTERPRISE NETWORK" style="text;html=1;strokeColor=none;fillColor=none;align=center;verticalAlign=middle;whiteSpace=wrap;overflow=hidden;shadow=0;fontSize=36;fontColor=#AE4132;fontStyle=0" parent="1" vertex="1">
          <mxGeometry x="137" y="15" width="1380" height="45" as="geometry" />
        </mxCell>
        <mxCell id="171" style="edgeStyle=orthogonalEdgeStyle;rounded=0;jumpStyle=none;html=1;exitX=0;exitY=0.5;entryX=0;entryY=0.5;shadow=0;labelBackgroundColor=none;startArrow=none;startFill=0;endArrow=classic;endFill=1;endSize=6;jettySize=auto;orthogonalLoop=1;strokeColor=#23445D;strokeWidth=2;fillColor=#F08705;fontFamily=Helvetica;fontSize=14;fontColor=#F08705;align=left;fontStyle=0" parent="1" edge="1">
          <mxGeometry relative="1" as="geometry">
            <mxPoint x="337" y="37.5" as="sourcePoint" />
            <mxPoint x="337" y="37.5" as="targetPoint" />
          </mxGeometry>
        </mxCell>
        <mxCell id="8ytA5hsJ40Q7OXs0cWCs-173" value="" style="points=[[0.015,0.015,0],[0.985,0.015,0],[0.985,0.985,0],[0.015,0.985,0],[0.25,0,0],[0.5,0,0],[0.75,0,0],[1,0.25,0],[1,0.5,0],[1,0.75,0],[0.75,1,0],[0.5,1,0],[0.25,1,0],[0,0.75,0],[0,0.5,0],[0,0.25,0]];verticalLabelPosition=bottom;html=1;verticalAlign=top;aspect=fixed;align=center;pointerEvents=1;shape=mxgraph.cisco19.rect;prIcon=firewall;fillColor=#FAFAFA;strokeColor=#005073;" parent="1" vertex="1">
          <mxGeometry x="549.6100000000001" y="1726" width="102.39" height="80" as="geometry" />
        </mxCell>
        <mxCell id="8ytA5hsJ40Q7OXs0cWCs-174" value="&lt;font color=&quot;#000000&quot; style=&quot;font-size: 28px&quot;&gt;Firewall&lt;/font&gt;" style="text;html=1;strokeColor=none;fillColor=none;align=center;verticalAlign=middle;whiteSpace=wrap;overflow=hidden;shadow=0;fontSize=36;fontColor=#AE4132;fontStyle=0" parent="1" vertex="1">
          <mxGeometry x="652" y="1706" width="180" height="110" as="geometry" />
        </mxCell>
        <mxCell id="8ytA5hsJ40Q7OXs0cWCs-176" value="" style="points=[[0.015,0.015,0],[0.985,0.015,0],[0.985,0.985,0],[0.015,0.985,0],[0.25,0,0],[0.5,0,0],[0.75,0,0],[1,0.25,0],[1,0.5,0],[1,0.75,0],[0.75,1,0],[0.5,1,0],[0.25,1,0],[0,0.75,0],[0,0.5,0],[0,0.25,0]];verticalLabelPosition=bottom;html=1;verticalAlign=top;aspect=fixed;align=center;pointerEvents=1;shape=mxgraph.cisco19.rect;prIcon=ssl_terminator;fillColor=#FAFAFA;strokeColor=#005073;" parent="1" vertex="1">
          <mxGeometry x="549.6100000000001" y="1846" width="102.39" height="80" as="geometry" />
        </mxCell>
        <mxCell id="8ytA5hsJ40Q7OXs0cWCs-177" value="&lt;font color=&quot;#000000&quot; style=&quot;font-size: 28px&quot;&gt;SSL terminator&lt;/font&gt;" style="text;html=1;strokeColor=none;fillColor=none;align=center;verticalAlign=middle;whiteSpace=wrap;overflow=hidden;shadow=0;fontSize=36;fontColor=#AE4132;fontStyle=0" parent="1" vertex="1">
          <mxGeometry x="675.6100000000001" y="1826" width="208" height="110" as="geometry" />
        </mxCell>
        <mxCell id="8ytA5hsJ40Q7OXs0cWCs-178" value="" style="points=[[0.015,0.015,0],[0.985,0.015,0],[0.985,0.985,0],[0.015,0.985,0],[0.25,0,0],[0.5,0,0],[0.75,0,0],[1,0.25,0],[1,0.5,0],[1,0.75,0],[0.75,1,0],[0.5,1,0],[0.25,1,0],[0,0.75,0],[0,0.5,0],[0,0.25,0]];verticalLabelPosition=bottom;html=1;verticalAlign=top;aspect=fixed;align=center;pointerEvents=1;shape=mxgraph.cisco19.rect;prIcon=ips_ids;fillColor=#FAFAFA;strokeColor=#005073;" parent="1" vertex="1">
          <mxGeometry x="1004.5" y="2236" width="102.39" height="80" as="geometry" />
        </mxCell>
        <mxCell id="8ytA5hsJ40Q7OXs0cWCs-179" value="&lt;font color=&quot;#000000&quot; style=&quot;font-size: 28px&quot;&gt;IDS/IPS&lt;/font&gt;" style="text;html=1;strokeColor=none;fillColor=none;align=center;verticalAlign=middle;whiteSpace=wrap;overflow=hidden;shadow=0;fontSize=36;fontColor=#AE4132;fontStyle=0" parent="1" vertex="1">
          <mxGeometry x="1126.5" y="2206" width="180" height="110" as="geometry" />
        </mxCell>
        <mxCell id="8ytA5hsJ40Q7OXs0cWCs-180" value="" style="points=[[0.115,0.05,0],[0.335,0,0],[0.98,0.52,0],[1,0.71,0],[0.68,1,0],[0.065,0.76,0],[0,0.33,0],[0.68,0.33,0]];verticalLabelPosition=bottom;html=1;verticalAlign=top;aspect=fixed;align=center;pointerEvents=1;shape=mxgraph.cisco19.home_office;fillColor=#005073;strokeColor=none;" parent="1" vertex="1">
          <mxGeometry x="172.75" y="1935" width="90" height="90" as="geometry" />
        </mxCell>
        <mxCell id="8ytA5hsJ40Q7OXs0cWCs-181" value="&lt;font color=&quot;#000000&quot; style=&quot;font-size: 28px&quot;&gt;Home office&lt;/font&gt;" style="text;html=1;strokeColor=none;fillColor=none;align=center;verticalAlign=middle;whiteSpace=wrap;overflow=hidden;shadow=0;fontSize=36;fontColor=#AE4132;fontStyle=0" parent="1" vertex="1">
          <mxGeometry x="278" y="1915" width="180" height="110" as="geometry" />
        </mxCell>
        <mxCell id="8ytA5hsJ40Q7OXs0cWCs-182" value="" style="points=[[0.5,0,0],[1,0.34,0],[1,1],[0.75,1,0],[0.5,1,0],[0.25,1,0],[0,1,0],[0,0.34,0],[1,0.67,0],[0,0.67,0],[0.325,0,0],[0.675,0,0]];verticalLabelPosition=bottom;html=1;verticalAlign=top;aspect=fixed;align=center;pointerEvents=1;shape=mxgraph.cisco19.data_center;fillColor=#005073;strokeColor=none;" parent="1" vertex="1">
          <mxGeometry x="154.64" y="2231" width="142.86" height="100" as="geometry" />
        </mxCell>
        <mxCell id="8ytA5hsJ40Q7OXs0cWCs-183" value="&lt;font color=&quot;#000000&quot; style=&quot;font-size: 28px&quot;&gt;Data Center&lt;/font&gt;" style="text;html=1;strokeColor=none;fillColor=none;align=center;verticalAlign=middle;whiteSpace=wrap;overflow=hidden;shadow=0;fontSize=36;fontColor=#AE4132;fontStyle=0" parent="1" vertex="1">
          <mxGeometry x="312.5" y="2231" width="180" height="110" as="geometry" />
        </mxCell>
        <mxCell id="8ytA5hsJ40Q7OXs0cWCs-184" value="" style="points=[[0,0.64,0],[0.2,0.15,0],[0.4,0.01,0],[0.79,0.25,0],[1,0.65,0],[0.8,0.86,0],[0.41,1,0],[0.16,0.86,0]];verticalLabelPosition=bottom;html=1;verticalAlign=top;aspect=fixed;align=center;pointerEvents=1;shape=mxgraph.cisco19.cloud;fillColor=#6B6B6B;strokeColor=none;" parent="1" vertex="1">
          <mxGeometry x="137.5" y="2341" width="200" height="120" as="geometry" />
        </mxCell>
        <mxCell id="8ytA5hsJ40Q7OXs0cWCs-185" value="&lt;font color=&quot;#000000&quot; style=&quot;font-size: 28px&quot;&gt;Cloud&lt;/font&gt;" style="text;html=1;strokeColor=none;fillColor=none;align=center;verticalAlign=middle;whiteSpace=wrap;overflow=hidden;shadow=0;fontSize=36;fontColor=#AE4132;fontStyle=0" parent="1" vertex="1">
          <mxGeometry x="312.5" y="2351" width="180" height="110" as="geometry" />
        </mxCell>
        <mxCell id="8ytA5hsJ40Q7OXs0cWCs-188" value="" style="points=[[0.015,0.015,0],[0.985,0.015,0],[0.985,0.985,0],[0.015,0.985,0],[0.25,0,0],[0.5,0,0],[0.75,0,0],[1,0.25,0],[1,0.5,0],[1,0.75,0],[0.75,1,0],[0.5,1,0],[0.25,1,0],[0,0.75,0],[0,0.5,0],[0,0.25,0]];verticalLabelPosition=bottom;html=1;verticalAlign=top;aspect=fixed;align=center;pointerEvents=1;shape=mxgraph.cisco19.rect;prIcon=virtual_private_network2;fillColor=#FAFAFA;strokeColor=#005073;" parent="1" vertex="1">
          <mxGeometry x="549.6100000000001" y="1974" width="102.4" height="80" as="geometry" />
        </mxCell>
        <mxCell id="8ytA5hsJ40Q7OXs0cWCs-189" value="&lt;font color=&quot;#000000&quot; style=&quot;font-size: 28px&quot;&gt;Virtual Private Network&lt;/font&gt;" style="text;html=1;strokeColor=none;fillColor=none;align=center;verticalAlign=middle;whiteSpace=wrap;overflow=hidden;shadow=0;fontSize=36;fontColor=#AE4132;fontStyle=0" parent="1" vertex="1">
          <mxGeometry x="691.6100000000001" y="1967" width="292" height="110" as="geometry" />
        </mxCell>
        <mxCell id="8ytA5hsJ40Q7OXs0cWCs-192" value="" style="points=[[0.015,0.015,0],[0.985,0.015,0],[0.985,0.985,0],[0.015,0.985,0],[0.25,0,0],[0.5,0,0],[0.75,0,0],[1,0.25,0],[1,0.5,0],[1,0.75,0],[0.75,1,0],[0.5,1,0],[0.25,1,0],[0,0.75,0],[0,0.5,0],[0,0.25,0]];verticalLabelPosition=bottom;html=1;verticalAlign=top;aspect=fixed;align=center;pointerEvents=1;shape=mxgraph.cisco19.rect;prIcon=acs;fillColor=#FAFAFA;strokeColor=#005073;" parent="1" vertex="1">
          <mxGeometry x="557.25" y="2104" width="94" height="73.44" as="geometry" />
        </mxCell>
        <mxCell id="8ytA5hsJ40Q7OXs0cWCs-193" value="&lt;font color=&quot;#000000&quot; style=&quot;font-size: 28px&quot;&gt;AAA Server&lt;/font&gt;" style="text;html=1;strokeColor=none;fillColor=none;align=center;verticalAlign=middle;whiteSpace=wrap;overflow=hidden;shadow=0;fontSize=36;fontColor=#AE4132;fontStyle=0" parent="1" vertex="1">
          <mxGeometry x="585.75" y="2084" width="372" height="110" as="geometry" />
        </mxCell>
        <mxCell id="8ytA5hsJ40Q7OXs0cWCs-211" value="&lt;font style=&quot;font-size: 48px;&quot; color=&quot;#ff8000&quot;&gt;LEGEND&lt;/font&gt;" style="text;html=1;strokeColor=none;fillColor=none;align=center;verticalAlign=middle;whiteSpace=wrap;overflow=hidden;shadow=0;fontSize=48;fontColor=#AE4132;fontStyle=0" parent="1" vertex="1">
          <mxGeometry x="615" y="1590" width="217" height="110" as="geometry" />
        </mxCell>
        <mxCell id="JUatKGLZlm-w2R9bg3sv-186" value="" style="points=[[0.015,0.015,0],[0.985,0.015,0],[0.985,0.985,0],[0.015,0.985,0],[0.25,0,0],[0.5,0,0],[0.75,0,0],[1,0.25,0],[1,0.5,0],[1,0.75,0],[0.75,1,0],[0.5,1,0],[0.25,1,0],[0,0.75,0],[0,0.5,0],[0,0.25,0]];verticalLabelPosition=bottom;html=1;verticalAlign=top;aspect=fixed;align=center;pointerEvents=1;shape=mxgraph.cisco19.rect;prIcon=web_reputation_filtering;fillColor=#FAFAFA;strokeColor=#005073;" parent="1" vertex="1">
          <mxGeometry x="1000" y="1850" width="90" height="90" as="geometry" />
        </mxCell>
        <mxCell id="JUatKGLZlm-w2R9bg3sv-187" value="&lt;font color=&quot;#000000&quot; style=&quot;font-size: 28px&quot;&gt;Web Filtering&lt;/font&gt;" style="text;html=1;strokeColor=none;fillColor=none;align=center;verticalAlign=middle;whiteSpace=wrap;overflow=hidden;shadow=0;fontSize=36;fontColor=#AE4132;fontStyle=0" parent="1" vertex="1">
          <mxGeometry x="1030.5" y="1840" width="372" height="110" as="geometry" />
        </mxCell>
        <mxCell id="J81wUxFSy3zEdTalY9jt-172" value="" style="points=[[0.015,0.015,0],[0.985,0.015,0],[0.985,0.985,0],[0.015,0.985,0],[0.25,0,0],[0.5,0,0],[0.75,0,0],[1,0.25,0],[1,0.5,0],[1,0.75,0],[0.75,1,0],[0.5,1,0],[0.25,1,0],[0,0.75,0],[0,0.5,0],[0,0.25,0]];verticalLabelPosition=bottom;html=1;verticalAlign=top;aspect=fixed;align=center;pointerEvents=1;shape=mxgraph.cisco19.rect;prIcon=web_application_firewall;fillColor=#FAFAFA;strokeColor=#005073;" parent="1" vertex="1">
          <mxGeometry x="994.5" y="1731.1" width="101" height="78.9" as="geometry" />
        </mxCell>
        <mxCell id="J81wUxFSy3zEdTalY9jt-174" value="&lt;font color=&quot;#000000&quot; style=&quot;font-size: 28px&quot;&gt;Web Application Firewall&lt;/font&gt;" style="text;html=1;strokeColor=none;fillColor=none;align=center;verticalAlign=middle;whiteSpace=wrap;overflow=hidden;shadow=0;fontSize=36;fontColor=#AE4132;fontStyle=0" parent="1" vertex="1">
          <mxGeometry x="1100" y="1711" width="372" height="110" as="geometry" />
        </mxCell>
        <mxCell id="J81wUxFSy3zEdTalY9jt-175" value="&lt;font color=&quot;#000000&quot; style=&quot;font-size: 28px&quot;&gt;Malware filtering&lt;/font&gt;" style="text;html=1;strokeColor=none;fillColor=none;align=center;verticalAlign=middle;whiteSpace=wrap;overflow=hidden;shadow=0;fontSize=36;fontColor=#AE4132;fontStyle=0" parent="1" vertex="1">
          <mxGeometry x="1054" y="1954" width="372" height="110" as="geometry" />
        </mxCell>
        <mxCell id="J81wUxFSy3zEdTalY9jt-176" value="" style="points=[[0.015,0.015,0],[0.985,0.015,0],[0.985,0.985,0],[0.015,0.985,0],[0.25,0,0],[0.5,0,0],[0.75,0,0],[1,0.25,0],[1,0.5,0],[1,0.75,0],[0.75,1,0],[0.5,1,0],[0.25,1,0],[0,0.75,0],[0,0.5,0],[0,0.25,0]];verticalLabelPosition=bottom;html=1;verticalAlign=top;aspect=fixed;align=center;pointerEvents=1;shape=mxgraph.cisco19.rect;prIcon=anti_malware2;fillColor=#FAFAFA;strokeColor=#005073;" parent="1" vertex="1">
          <mxGeometry x="1000" y="1974" width="100" height="100" as="geometry" />
        </mxCell>
        <mxCell id="J81wUxFSy3zEdTalY9jt-177" value="" style="points=[[0.015,0.015,0],[0.985,0.015,0],[0.985,0.985,0],[0.015,0.985,0],[0.25,0,0],[0.5,0,0],[0.75,0,0],[1,0.25,0],[1,0.5,0],[1,0.75,0],[0.75,1,0],[0.5,1,0],[0.25,1,0],[0,0.75,0],[0,0.5,0],[0,0.25,0]];verticalLabelPosition=bottom;html=1;verticalAlign=top;aspect=fixed;align=center;pointerEvents=1;shape=mxgraph.cisco19.rect;prIcon=next_generation_intrusion_prevention_system;fillColor=#FAFAFA;strokeColor=#005073;" parent="1" vertex="1">
          <mxGeometry x="1004.5" y="2104" width="91" height="91" as="geometry" />
        </mxCell>
        <mxCell id="J81wUxFSy3zEdTalY9jt-178" value="&lt;font color=&quot;#000000&quot; style=&quot;font-size: 28px&quot;&gt;SSL inspection&lt;/font&gt;" style="text;html=1;strokeColor=none;fillColor=none;align=center;verticalAlign=middle;whiteSpace=wrap;overflow=hidden;shadow=0;fontSize=36;fontColor=#AE4132;fontStyle=0" parent="1" vertex="1">
          <mxGeometry x="1054" y="2084" width="372" height="110" as="geometry" />
        </mxCell>
        <mxCell id="ROe8e-lJCwvhkLjui_l0-172" value="" style="points=[[0,0,0],[0.25,0,0],[0.5,0,0],[0.75,0,0],[1,0,0],[1,0.25,0],[1,0.5,0],[1,0.75,0],[1,1,0],[0.75,1,0],[0.5,1,0],[0.25,1,0],[0,1,0],[0,0.75,0],[0,0.5,0],[0,0.25,0]];verticalLabelPosition=bottom;html=1;verticalAlign=top;aspect=fixed;align=center;pointerEvents=1;shape=mxgraph.cisco19.branch;fillColor=#005073;strokeColor=none;" parent="1" vertex="1">
          <mxGeometry x="1070" y="100" width="202" height="202" as="geometry" />
        </mxCell>
        <mxCell id="ROe8e-lJCwvhkLjui_l0-174" value="" style="points=[[0.03,0.03,0],[0.5,0,0],[0.97,0.03,0],[1,0.4,0],[0.97,0.745,0],[0.5,1,0],[0.03,0.745,0],[0,0.4,0]];verticalLabelPosition=bottom;html=1;verticalAlign=top;aspect=fixed;align=center;pointerEvents=1;shape=mxgraph.cisco19.workstation;fillColor=#005073;strokeColor=none;" parent="1" vertex="1">
          <mxGeometry x="1090" y="250" width="50" height="40" as="geometry" />
        </mxCell>
        <mxCell id="ROe8e-lJCwvhkLjui_l0-181" value="" style="points=[[0.015,0.015,0],[0.985,0.015,0],[0.985,0.985,0],[0.015,0.985,0],[0.25,0,0],[0.5,0,0],[0.75,0,0],[1,0.25,0],[1,0.5,0],[1,0.75,0],[0.75,1,0],[0.5,1,0],[0.25,1,0],[0,0.75,0],[0,0.5,0],[0,0.25,0]];verticalLabelPosition=bottom;html=1;verticalAlign=top;aspect=fixed;align=center;pointerEvents=1;shape=mxgraph.cisco19.server;fillColor=#005073;strokeColor=none;" parent="1" vertex="1">
          <mxGeometry x="181.5" y="1720" width="47.5" height="86.36" as="geometry" />
        </mxCell>
        <mxCell id="ROe8e-lJCwvhkLjui_l0-182" value="&lt;font color=&quot;#000000&quot; style=&quot;font-size: 28px&quot;&gt;Server&lt;/font&gt;" style="text;html=1;strokeColor=none;fillColor=none;align=center;verticalAlign=middle;whiteSpace=wrap;overflow=hidden;shadow=0;fontSize=36;fontColor=#AE4132;fontStyle=0" parent="1" vertex="1">
          <mxGeometry x="241.5" y="1700" width="180" height="110" as="geometry" />
        </mxCell>
        <mxCell id="ROe8e-lJCwvhkLjui_l0-183" value="" style="points=[[0.03,0.03,0],[0.5,0,0],[0.97,0.03,0],[1,0.4,0],[0.97,0.745,0],[0.5,1,0],[0.03,0.745,0],[0,0.4,0]];verticalLabelPosition=bottom;html=1;verticalAlign=top;aspect=fixed;align=center;pointerEvents=1;shape=mxgraph.cisco19.workstation;fillColor=#005073;strokeColor=none;" parent="1" vertex="1">
          <mxGeometry x="180.25" y="1840" width="50" height="40" as="geometry" />
        </mxCell>
        <mxCell id="ROe8e-lJCwvhkLjui_l0-184" value="&lt;font color=&quot;#000000&quot; style=&quot;font-size: 28px&quot;&gt;Workstation&lt;/font&gt;" style="text;html=1;strokeColor=none;fillColor=none;align=center;verticalAlign=middle;whiteSpace=wrap;overflow=hidden;shadow=0;fontSize=36;fontColor=#AE4132;fontStyle=0" parent="1" vertex="1">
          <mxGeometry x="278" y="1800" width="180" height="110" as="geometry" />
        </mxCell>
        <mxCell id="ROe8e-lJCwvhkLjui_l0-185" value="" style="points=[[0,0,0],[0.25,0,0],[0.5,0,0],[0.75,0,0],[1,0,0],[1,0.25,0],[1,0.5,0],[1,0.75,0],[1,1,0],[0.75,1,0],[0.5,1,0],[0.25,1,0],[0,1,0],[0,0.75,0],[0,0.5,0],[0,0.25,0]];verticalLabelPosition=bottom;html=1;verticalAlign=top;aspect=fixed;align=center;pointerEvents=1;shape=mxgraph.cisco19.branch;fillColor=#005073;strokeColor=none;" parent="1" vertex="1">
          <mxGeometry x="160" y="2070" width="124" height="124" as="geometry" />
        </mxCell>
        <mxCell id="ROe8e-lJCwvhkLjui_l0-186" value="&lt;font color=&quot;#000000&quot; style=&quot;font-size: 28px&quot;&gt;Branch&lt;/font&gt;" style="text;html=1;strokeColor=none;fillColor=none;align=center;verticalAlign=middle;whiteSpace=wrap;overflow=hidden;shadow=0;fontSize=36;fontColor=#AE4132;fontStyle=0" parent="1" vertex="1">
          <mxGeometry x="260" y="2077" width="180" height="110" as="geometry" />
        </mxCell>
        <mxCell id="ROe8e-lJCwvhkLjui_l0-187" value="" style="points=[[0,0.64,0],[0.2,0.15,0],[0.4,0.01,0],[0.79,0.25,0],[1,0.65,0],[0.8,0.86,0],[0.41,1,0],[0.16,0.86,0]];verticalLabelPosition=bottom;html=1;verticalAlign=top;aspect=fixed;align=center;pointerEvents=1;shape=mxgraph.cisco19.cloud;fillColor=#6B6B6B;strokeColor=none;" parent="1" vertex="1">
          <mxGeometry x="137.5" y="2341" width="200" height="120" as="geometry" />
        </mxCell>
        <mxCell id="ROe8e-lJCwvhkLjui_l0-189" value="" style="points=[[0,0.64,0],[0.2,0.15,0],[0.4,0.01,0],[0.79,0.25,0],[1,0.65,0],[0.8,0.86,0],[0.41,1,0],[0.16,0.86,0]];verticalLabelPosition=bottom;html=1;verticalAlign=top;aspect=fixed;align=center;pointerEvents=1;shape=mxgraph.cisco19.cloud;fillColor=#6B6B6B;strokeColor=none;" parent="1" vertex="1">
          <mxGeometry x="137.5" y="2341" width="200" height="120" as="geometry" />
        </mxCell>
        <mxCell id="ROe8e-lJCwvhkLjui_l0-191" value="" style="points=[[0,0.64,0],[0.2,0.15,0],[0.4,0.01,0],[0.79,0.25,0],[1,0.65,0],[0.8,0.86,0],[0.41,1,0],[0.16,0.86,0]];verticalLabelPosition=bottom;html=1;verticalAlign=top;aspect=fixed;align=center;pointerEvents=1;shape=mxgraph.cisco19.cloud;fillColor=#6B6B6B;strokeColor=none;" parent="1" vertex="1">
          <mxGeometry x="137.5" y="2341" width="200" height="120" as="geometry" />
        </mxCell>
        <mxCell id="ROe8e-lJCwvhkLjui_l0-193" value="" style="points=[[0,0.64,0],[0.2,0.15,0],[0.4,0.01,0],[0.79,0.25,0],[1,0.65,0],[0.8,0.86,0],[0.41,1,0],[0.16,0.86,0]];verticalLabelPosition=bottom;html=1;verticalAlign=top;aspect=fixed;align=center;pointerEvents=1;shape=mxgraph.cisco19.cloud;fillColor=#6B6B6B;strokeColor=none;" parent="1" vertex="1">
          <mxGeometry x="137.5" y="2341" width="200" height="120" as="geometry" />
        </mxCell>
        <mxCell id="ROe8e-lJCwvhkLjui_l0-195" value="" style="points=[[0,0.64,0],[0.2,0.15,0],[0.4,0.01,0],[0.79,0.25,0],[1,0.65,0],[0.8,0.86,0],[0.41,1,0],[0.16,0.86,0]];verticalLabelPosition=bottom;html=1;verticalAlign=top;aspect=fixed;align=center;pointerEvents=1;shape=mxgraph.cisco19.cloud;fillColor=#6B6B6B;strokeColor=none;" parent="1" vertex="1">
          <mxGeometry x="137.5" y="2341" width="200" height="120" as="geometry" />
        </mxCell>
        <mxCell id="ROe8e-lJCwvhkLjui_l0-197" value="" style="points=[[0,0.64,0],[0.2,0.15,0],[0.4,0.01,0],[0.79,0.25,0],[1,0.65,0],[0.8,0.86,0],[0.41,1,0],[0.16,0.86,0]];verticalLabelPosition=bottom;html=1;verticalAlign=top;aspect=fixed;align=center;pointerEvents=1;shape=mxgraph.cisco19.cloud;fillColor=#6B6B6B;strokeColor=none;" parent="1" vertex="1">
          <mxGeometry x="137.5" y="2341" width="200" height="120" as="geometry" />
        </mxCell>
        <mxCell id="ROe8e-lJCwvhkLjui_l0-199" value="" style="points=[[0.5,0,0],[1,0.34,0],[1,1],[0.75,1,0],[0.5,1,0],[0.25,1,0],[0,1,0],[0,0.34,0],[1,0.67,0],[0,0.67,0],[0.325,0,0],[0.675,0,0]];verticalLabelPosition=bottom;html=1;verticalAlign=top;aspect=fixed;align=center;pointerEvents=1;shape=mxgraph.cisco19.data_center;fillColor=#005073;strokeColor=none;" parent="1" vertex="1">
          <mxGeometry x="154.64" y="2231" width="142.86" height="100" as="geometry" />
        </mxCell>
        <mxCell id="ROe8e-lJCwvhkLjui_l0-200" value="" style="points=[[0,0.64,0],[0.2,0.15,0],[0.4,0.01,0],[0.79,0.25,0],[1,0.65,0],[0.8,0.86,0],[0.41,1,0],[0.16,0.86,0]];verticalLabelPosition=bottom;html=1;verticalAlign=top;aspect=fixed;align=center;pointerEvents=1;shape=mxgraph.cisco19.cloud;fillColor=#6B6B6B;strokeColor=none;" parent="1" vertex="1">
          <mxGeometry x="137.5" y="2341" width="200" height="120" as="geometry" />
        </mxCell>
        <mxCell id="ROe8e-lJCwvhkLjui_l0-202" value="" style="points=[[0.5,0,0],[1,0.34,0],[1,1],[0.75,1,0],[0.5,1,0],[0.25,1,0],[0,1,0],[0,0.34,0],[1,0.67,0],[0,0.67,0],[0.325,0,0],[0.675,0,0]];verticalLabelPosition=bottom;html=1;verticalAlign=top;aspect=fixed;align=center;pointerEvents=1;shape=mxgraph.cisco19.data_center;fillColor=#005073;strokeColor=none;" parent="1" vertex="1">
          <mxGeometry x="154.64" y="2231" width="142.86" height="100" as="geometry" />
        </mxCell>
        <mxCell id="ROe8e-lJCwvhkLjui_l0-203" value="" style="points=[[0,0.64,0],[0.2,0.15,0],[0.4,0.01,0],[0.79,0.25,0],[1,0.65,0],[0.8,0.86,0],[0.41,1,0],[0.16,0.86,0]];verticalLabelPosition=bottom;html=1;verticalAlign=top;aspect=fixed;align=center;pointerEvents=1;shape=mxgraph.cisco19.cloud;fillColor=#6B6B6B;strokeColor=none;" parent="1" vertex="1">
          <mxGeometry x="137.5" y="2341" width="200" height="120" as="geometry" />
        </mxCell>
        <mxCell id="ROe8e-lJCwvhkLjui_l0-205" value="" style="points=[[0.5,0,0],[1,0.34,0],[1,1],[0.75,1,0],[0.5,1,0],[0.25,1,0],[0,1,0],[0,0.34,0],[1,0.67,0],[0,0.67,0],[0.325,0,0],[0.675,0,0]];verticalLabelPosition=bottom;html=1;verticalAlign=top;aspect=fixed;align=center;pointerEvents=1;shape=mxgraph.cisco19.data_center;fillColor=#005073;strokeColor=none;" parent="1" vertex="1">
          <mxGeometry x="154.64" y="2231" width="142.86" height="100" as="geometry" />
        </mxCell>
        <mxCell id="ROe8e-lJCwvhkLjui_l0-206" value="" style="points=[[0,0.64,0],[0.2,0.15,0],[0.4,0.01,0],[0.79,0.25,0],[1,0.65,0],[0.8,0.86,0],[0.41,1,0],[0.16,0.86,0]];verticalLabelPosition=bottom;html=1;verticalAlign=top;aspect=fixed;align=center;pointerEvents=1;shape=mxgraph.cisco19.cloud;fillColor=#6B6B6B;strokeColor=none;" parent="1" vertex="1">
          <mxGeometry x="137.5" y="2341" width="200" height="120" as="geometry" />
        </mxCell>
        <mxCell id="ROe8e-lJCwvhkLjui_l0-208" value="" style="points=[[0.5,0,0],[1,0.34,0],[1,1],[0.75,1,0],[0.5,1,0],[0.25,1,0],[0,1,0],[0,0.34,0],[1,0.67,0],[0,0.67,0],[0.325,0,0],[0.675,0,0]];verticalLabelPosition=bottom;html=1;verticalAlign=top;aspect=fixed;align=center;pointerEvents=1;shape=mxgraph.cisco19.data_center;fillColor=#005073;strokeColor=none;" parent="1" vertex="1">
          <mxGeometry x="154.64" y="2231" width="142.86" height="100" as="geometry" />
        </mxCell>
        <mxCell id="ROe8e-lJCwvhkLjui_l0-209" value="" style="points=[[0.5,0,0],[1,0.5,0],[0.5,1,0],[0,0.5,0],[0.145,0.145,0],[0.8555,0.145,0],[0.855,0.8555,0],[0.145,0.855,0]];verticalLabelPosition=bottom;html=1;verticalAlign=top;aspect=fixed;align=center;pointerEvents=1;shape=mxgraph.cisco19.rect;prIcon=router;fillColor=#FAFAFA;strokeColor=#005073;" parent="1" vertex="1">
          <mxGeometry x="185.25" y="2483.5" width="65" height="65" as="geometry" />
        </mxCell>
        <mxCell id="ROe8e-lJCwvhkLjui_l0-210" value="&lt;font color=&quot;#000000&quot; style=&quot;font-size: 28px&quot;&gt;Router&lt;/font&gt;" style="text;html=1;strokeColor=none;fillColor=none;align=center;verticalAlign=middle;whiteSpace=wrap;overflow=hidden;shadow=0;fontSize=36;fontColor=#AE4132;fontStyle=0" parent="1" vertex="1">
          <mxGeometry x="337.5" y="2441" width="372" height="110" as="geometry" />
        </mxCell>
        <mxCell id="ROe8e-lJCwvhkLjui_l0-213" value="" style="endArrow=none;html=1;fillColor=#dae8fc;strokeColor=#6c8ebf;endSize=11;startSize=13;strokeWidth=4;" parent="1" edge="1">
          <mxGeometry width="50" height="50" relative="1" as="geometry">
            <mxPoint x="172.75" y="2576" as="sourcePoint" />
            <mxPoint x="255.25" y="2576" as="targetPoint" />
          </mxGeometry>
        </mxCell>
        <mxCell id="ROe8e-lJCwvhkLjui_l0-214" value="" style="endArrow=none;html=1;fillColor=#f8cecc;strokeColor=#b85450;strokeWidth=4;" parent="1" edge="1">
          <mxGeometry width="50" height="50" relative="1" as="geometry">
            <mxPoint x="173.5" y="2616" as="sourcePoint" />
            <mxPoint x="256" y="2616" as="targetPoint" />
          </mxGeometry>
        </mxCell>
        <mxCell id="ROe8e-lJCwvhkLjui_l0-215" value="&lt;font color=&quot;#000000&quot; style=&quot;font-size: 28px&quot;&gt;MPLS&lt;/font&gt;" style="text;html=1;strokeColor=none;fillColor=none;align=center;verticalAlign=middle;whiteSpace=wrap;overflow=hidden;shadow=0;fontSize=36;fontColor=#AE4132;fontStyle=0" parent="1" vertex="1">
          <mxGeometry x="185.25" y="2516" width="372" height="110" as="geometry" />
        </mxCell>
        <mxCell id="ROe8e-lJCwvhkLjui_l0-216" value="&lt;font color=&quot;#000000&quot; style=&quot;font-size: 28px&quot;&gt;Internet&lt;/font&gt;" style="text;html=1;strokeColor=none;fillColor=none;align=center;verticalAlign=middle;whiteSpace=wrap;overflow=hidden;shadow=0;fontSize=36;fontColor=#AE4132;fontStyle=0" parent="1" vertex="1">
          <mxGeometry x="185.25" y="2556" width="372" height="110" as="geometry" />
        </mxCell>
        <mxCell id="ROe8e-lJCwvhkLjui_l0-219" value="&lt;font style=&quot;font-size: 23px;&quot; color=&quot;#cc0000&quot;&gt;Internet&lt;/font&gt;" style="points=[[0,0.64,0],[0.2,0.15,0],[0.4,0.01,0],[0.79,0.25,0],[1,0.65,0],[0.8,0.86,0],[0.41,1,0],[0.16,0.86,0]];verticalLabelPosition=bottom;html=1;verticalAlign=top;aspect=fixed;align=center;pointerEvents=1;shape=mxgraph.cisco19.cloud;fillColor=#a20025;strokeColor=#6F0000;fontColor=#ffffff;fontSize=23;" parent="1" vertex="1">
          <mxGeometry x="80" y="490" width="200" height="120" as="geometry" />
        </mxCell>
        <mxCell id="ROe8e-lJCwvhkLjui_l0-220" value="" style="points=[[0.015,0.015,0],[0.985,0.015,0],[0.985,0.985,0],[0.015,0.985,0],[0.25,0,0],[0.5,0,0],[0.75,0,0],[1,0.25,0],[1,0.5,0],[1,0.75,0],[0.75,1,0],[0.5,1,0],[0.25,1,0],[0,0.75,0],[0,0.5,0],[0,0.25,0]];verticalLabelPosition=bottom;html=1;verticalAlign=top;aspect=fixed;align=center;pointerEvents=1;shape=mxgraph.cisco19.secure_server;fillColor=#005073;strokeColor=none;" parent="1" vertex="1">
          <mxGeometry x="570" y="2227.5" width="73.43" height="133.51" as="geometry" />
        </mxCell>
        <mxCell id="ROe8e-lJCwvhkLjui_l0-221" value="&lt;font color=&quot;#000000&quot; style=&quot;font-size: 28px&quot;&gt;SIEM Server&lt;/font&gt;" style="text;html=1;strokeColor=none;fillColor=none;align=center;verticalAlign=middle;whiteSpace=wrap;overflow=hidden;shadow=0;fontSize=36;fontColor=#AE4132;fontStyle=0" parent="1" vertex="1">
          <mxGeometry x="593.6099999999999" y="2240" width="372" height="110" as="geometry" />
        </mxCell>
        <mxCell id="ROe8e-lJCwvhkLjui_l0-222" value="" style="points=[[0.015,0.015,0],[0.985,0.015,0],[0.985,0.985,0],[0.015,0.985,0],[0.25,0,0],[0.5,0,0],[0.75,0,0],[1,0.25,0],[1,0.5,0],[1,0.75,0],[0.75,1,0],[0.5,1,0],[0.25,1,0],[0,0.75,0],[0,0.5,0],[0,0.25,0]];verticalLabelPosition=bottom;html=1;verticalAlign=top;aspect=fixed;align=center;pointerEvents=1;shape=mxgraph.cisco19.rect;prIcon=email_security;fillColor=#FAFAFA;strokeColor=#005073;" parent="1" vertex="1">
          <mxGeometry x="1004.5" y="2361.31" width="102" height="79.69" as="geometry" />
        </mxCell>
        <mxCell id="ROe8e-lJCwvhkLjui_l0-223" value="&lt;font color=&quot;#000000&quot; style=&quot;font-size: 28px&quot;&gt;Email Security&lt;/font&gt;" style="text;html=1;strokeColor=none;fillColor=none;align=center;verticalAlign=middle;whiteSpace=wrap;overflow=hidden;shadow=0;fontSize=36;fontColor=#AE4132;fontStyle=0" parent="1" vertex="1">
          <mxGeometry x="1126.5" y="2340" width="233.5" height="110" as="geometry" />
        </mxCell>
        <mxCell id="gTKwi0WtYb4K1l9GXwkQ-181" value="" style="points=[[0.015,0.015,0],[0.985,0.015,0],[0.985,0.985,0],[0.015,0.985,0],[0.25,0,0],[0.5,0,0],[0.75,0,0],[1,0.25,0],[1,0.5,0],[1,0.75,0],[0.75,1,0],[0.5,1,0],[0.25,1,0],[0,0.75,0],[0,0.5,0],[0,0.25,0]];verticalLabelPosition=bottom;html=1;verticalAlign=top;aspect=fixed;align=center;pointerEvents=1;shape=mxgraph.cisco19.rect;prIcon=virtual_private_network2;fillColor=#FAFAFA;strokeColor=#005073;" parent="1" vertex="1">
          <mxGeometry x="530" y="480" width="102.4" height="80" as="geometry" />
        </mxCell>
        <mxCell id="gTKwi0WtYb4K1l9GXwkQ-175" value="" style="points=[[0.015,0.015,0],[0.985,0.015,0],[0.985,0.985,0],[0.015,0.985,0],[0.25,0,0],[0.5,0,0],[0.75,0,0],[1,0.25,0],[1,0.5,0],[1,0.75,0],[0.75,1,0],[0.5,1,0],[0.25,1,0],[0,0.75,0],[0,0.5,0],[0,0.25,0]];verticalLabelPosition=bottom;html=1;verticalAlign=top;aspect=fixed;align=center;pointerEvents=1;shape=mxgraph.cisco19.rect;prIcon=anti_malware2;fillColor=#FAFAFA;strokeColor=#005073;" parent="1" vertex="1">
          <mxGeometry x="670" y="480" width="100" height="100" as="geometry" />
        </mxCell>
        <mxCell id="gTKwi0WtYb4K1l9GXwkQ-173" value="" style="points=[[0.5,0,0],[1,0.5,0],[0.5,1,0],[0,0.5,0],[0.145,0.145,0],[0.8555,0.145,0],[0.855,0.8555,0],[0.145,0.855,0]];verticalLabelPosition=bottom;html=1;verticalAlign=top;aspect=fixed;align=center;pointerEvents=1;shape=mxgraph.cisco19.rect;prIcon=router;fillColor=#FAFAFA;strokeColor=#005073;" parent="1" vertex="1">
          <mxGeometry x="320" y="530" width="65" height="65" as="geometry" />
        </mxCell>
        <mxCell id="gTKwi0WtYb4K1l9GXwkQ-187" value="" style="points=[[0.015,0.015,0],[0.985,0.015,0],[0.985,0.985,0],[0.015,0.985,0],[0.25,0,0],[0.5,0,0],[0.75,0,0],[1,0.25,0],[1,0.5,0],[1,0.75,0],[0.75,1,0],[0.5,1,0],[0.25,1,0],[0,0.75,0],[0,0.5,0],[0,0.25,0]];verticalLabelPosition=bottom;html=1;verticalAlign=top;aspect=fixed;align=center;pointerEvents=1;shape=mxgraph.cisco19.rect;prIcon=firewall;fillColor=#FAFAFA;strokeColor=#005073;" parent="1" vertex="1">
          <mxGeometry x="410.0000000000001" y="530" width="102.39" height="80" as="geometry" />
        </mxCell>
        <mxCell id="gTKwi0WtYb4K1l9GXwkQ-191" value="" style="points=[[0.015,0.015,0],[0.985,0.015,0],[0.985,0.985,0],[0.015,0.985,0],[0.25,0,0],[0.5,0,0],[0.75,0,0],[1,0.25,0],[1,0.5,0],[1,0.75,0],[0.75,1,0],[0.5,1,0],[0.25,1,0],[0,0.75,0],[0,0.5,0],[0,0.25,0]];verticalLabelPosition=bottom;html=1;verticalAlign=top;aspect=fixed;align=center;pointerEvents=1;shape=mxgraph.cisco19.rect;prIcon=acs;fillColor=#FAFAFA;strokeColor=#005073;" parent="1" vertex="1">
          <mxGeometry x="800" y="480" width="94" height="73.44" as="geometry" />
        </mxCell>
        <mxCell id="Rn4BWPrNsbCr0oajYnuM-173" value="" style="edgeStyle=orthogonalEdgeStyle;rounded=0;orthogonalLoop=1;jettySize=auto;html=1;" parent="1" source="gTKwi0WtYb4K1l9GXwkQ-192" edge="1">
          <mxGeometry relative="1" as="geometry">
            <mxPoint x="1075" y="592.5" as="targetPoint" />
          </mxGeometry>
        </mxCell>
        <mxCell id="gTKwi0WtYb4K1l9GXwkQ-192" value="" style="points=[[0.5,0,0],[1,0.5,0],[0.5,1,0],[0,0.5,0],[0.145,0.145,0],[0.8555,0.145,0],[0.855,0.8555,0],[0.145,0.855,0]];verticalLabelPosition=bottom;html=1;verticalAlign=top;aspect=fixed;align=center;pointerEvents=1;shape=mxgraph.cisco19.rect;prIcon=router;fillColor=#FAFAFA;strokeColor=#005073;" parent="1" vertex="1">
          <mxGeometry x="930" y="560" width="65" height="65" as="geometry" />
        </mxCell>
        <mxCell id="gTKwi0WtYb4K1l9GXwkQ-194" value="" style="points=[[0,0,0],[0.25,0,0],[0.5,0,0],[0.75,0,0],[1,0,0],[1,0.25,0],[1,0.5,0],[1,0.75,0],[1,1,0],[0.75,1,0],[0.5,1,0],[0.25,1,0],[0,1,0],[0,0.75,0],[0,0.5,0],[0,0.25,0]];verticalLabelPosition=bottom;html=1;verticalAlign=top;aspect=fixed;align=center;pointerEvents=1;shape=mxgraph.cisco19.branch;fillColor=#005073;strokeColor=none;" parent="1" vertex="1">
          <mxGeometry x="1070" y="340" width="202" height="202" as="geometry" />
        </mxCell>
        <mxCell id="gTKwi0WtYb4K1l9GXwkQ-195" value="" style="points=[[0.03,0.03,0],[0.5,0,0],[0.97,0.03,0],[1,0.4,0],[0.97,0.745,0],[0.5,1,0],[0.03,0.745,0],[0,0.4,0]];verticalLabelPosition=bottom;html=1;verticalAlign=top;aspect=fixed;align=center;pointerEvents=1;shape=mxgraph.cisco19.workstation;fillColor=#005073;strokeColor=none;" parent="1" vertex="1">
          <mxGeometry x="1090" y="490" width="50" height="40" as="geometry" />
        </mxCell>
        <mxCell id="gTKwi0WtYb4K1l9GXwkQ-196" value="" style="points=[[0,0,0],[0.25,0,0],[0.5,0,0],[0.75,0,0],[1,0,0],[1,0.25,0],[1,0.5,0],[1,0.75,0],[1,1,0],[0.75,1,0],[0.5,1,0],[0.25,1,0],[0,1,0],[0,0.75,0],[0,0.5,0],[0,0.25,0]];verticalLabelPosition=bottom;html=1;verticalAlign=top;aspect=fixed;align=center;pointerEvents=1;shape=mxgraph.cisco19.branch;fillColor=#005073;strokeColor=none;" parent="1" vertex="1">
          <mxGeometry x="1070" y="580" width="202" height="202" as="geometry" />
        </mxCell>
        <mxCell id="gTKwi0WtYb4K1l9GXwkQ-197" value="" style="points=[[0.03,0.03,0],[0.5,0,0],[0.97,0.03,0],[1,0.4,0],[0.97,0.745,0],[0.5,1,0],[0.03,0.745,0],[0,0.4,0]];verticalLabelPosition=bottom;html=1;verticalAlign=top;aspect=fixed;align=center;pointerEvents=1;shape=mxgraph.cisco19.workstation;fillColor=#005073;strokeColor=none;" parent="1" vertex="1">
          <mxGeometry x="1090" y="730" width="50" height="40" as="geometry" />
        </mxCell>
        <mxCell id="gTKwi0WtYb4K1l9GXwkQ-198" value="" style="points=[[0,0,0],[0.25,0,0],[0.5,0,0],[0.75,0,0],[1,0,0],[1,0.25,0],[1,0.5,0],[1,0.75,0],[1,1,0],[0.75,1,0],[0.5,1,0],[0.25,1,0],[0,1,0],[0,0.75,0],[0,0.5,0],[0,0.25,0]];verticalLabelPosition=bottom;html=1;verticalAlign=top;aspect=fixed;align=center;pointerEvents=1;shape=mxgraph.cisco19.branch;fillColor=#005073;strokeColor=none;" parent="1" vertex="1">
          <mxGeometry x="1070" y="830" width="202" height="202" as="geometry" />
        </mxCell>
        <mxCell id="gTKwi0WtYb4K1l9GXwkQ-199" value="" style="points=[[0.03,0.03,0],[0.5,0,0],[0.97,0.03,0],[1,0.4,0],[0.97,0.745,0],[0.5,1,0],[0.03,0.745,0],[0,0.4,0]];verticalLabelPosition=bottom;html=1;verticalAlign=top;aspect=fixed;align=center;pointerEvents=1;shape=mxgraph.cisco19.workstation;fillColor=#005073;strokeColor=none;" parent="1" vertex="1">
          <mxGeometry x="1090" y="980" width="50" height="40" as="geometry" />
        </mxCell>
        <mxCell id="gTKwi0WtYb4K1l9GXwkQ-200" value="" style="points=[[0,0,0],[0.25,0,0],[0.5,0,0],[0.75,0,0],[1,0,0],[1,0.25,0],[1,0.5,0],[1,0.75,0],[1,1,0],[0.75,1,0],[0.5,1,0],[0.25,1,0],[0,1,0],[0,0.75,0],[0,0.5,0],[0,0.25,0]];verticalLabelPosition=bottom;html=1;verticalAlign=top;aspect=fixed;align=center;pointerEvents=1;shape=mxgraph.cisco19.branch;fillColor=#005073;strokeColor=none;" parent="1" vertex="1">
          <mxGeometry x="1070" y="1060" width="202" height="202" as="geometry" />
        </mxCell>
        <mxCell id="gTKwi0WtYb4K1l9GXwkQ-201" value="" style="points=[[0.03,0.03,0],[0.5,0,0],[0.97,0.03,0],[1,0.4,0],[0.97,0.745,0],[0.5,1,0],[0.03,0.745,0],[0,0.4,0]];verticalLabelPosition=bottom;html=1;verticalAlign=top;aspect=fixed;align=center;pointerEvents=1;shape=mxgraph.cisco19.workstation;fillColor=#005073;strokeColor=none;" parent="1" vertex="1">
          <mxGeometry x="1090" y="1210" width="50" height="40" as="geometry" />
        </mxCell>
        <mxCell id="gTKwi0WtYb4K1l9GXwkQ-202" value="" style="points=[[0.5,0,0],[1,0.5,0],[0.5,1,0],[0,0.5,0],[0.145,0.145,0],[0.8555,0.145,0],[0.855,0.8555,0],[0.145,0.855,0]];verticalLabelPosition=bottom;html=1;verticalAlign=top;aspect=fixed;align=center;pointerEvents=1;shape=mxgraph.cisco19.rect;prIcon=router;fillColor=#FAFAFA;strokeColor=#005073;" parent="1" vertex="1">
          <mxGeometry x="1340" y="570" width="65" height="65" as="geometry" />
        </mxCell>
        <mxCell id="gTKwi0WtYb4K1l9GXwkQ-203" value="" style="points=[[0.015,0.015,0],[0.985,0.015,0],[0.985,0.985,0],[0.015,0.985,0],[0.25,0,0],[0.5,0,0],[0.75,0,0],[1,0.25,0],[1,0.5,0],[1,0.75,0],[0.75,1,0],[0.5,1,0],[0.25,1,0],[0,0.75,0],[0,0.5,0],[0,0.25,0]];verticalLabelPosition=bottom;html=1;verticalAlign=top;aspect=fixed;align=center;pointerEvents=1;shape=mxgraph.cisco19.rect;prIcon=firewall;fillColor=#FAFAFA;strokeColor=#005073;" parent="1" vertex="1">
          <mxGeometry x="300.0000000000001" y="610" width="102.39" height="80" as="geometry" />
        </mxCell>
        <mxCell id="gTKwi0WtYb4K1l9GXwkQ-204" value="" style="points=[[0.015,0.015,0],[0.985,0.015,0],[0.985,0.985,0],[0.015,0.985,0],[0.25,0,0],[0.5,0,0],[0.75,0,0],[1,0.25,0],[1,0.5,0],[1,0.75,0],[0.75,1,0],[0.5,1,0],[0.25,1,0],[0,0.75,0],[0,0.5,0],[0,0.25,0]];verticalLabelPosition=bottom;html=1;verticalAlign=top;aspect=fixed;align=center;pointerEvents=1;shape=mxgraph.cisco19.rect;prIcon=next_generation_intrusion_prevention_system;fillColor=#FAFAFA;strokeColor=#005073;" parent="1" vertex="1">
          <mxGeometry x="220" y="810" width="91" height="91" as="geometry" />
        </mxCell>
        <mxCell id="gTKwi0WtYb4K1l9GXwkQ-205" value="" style="points=[[0.015,0.015,0],[0.985,0.015,0],[0.985,0.985,0],[0.015,0.985,0],[0.25,0,0],[0.5,0,0],[0.75,0,0],[1,0.25,0],[1,0.5,0],[1,0.75,0],[0.75,1,0],[0.5,1,0],[0.25,1,0],[0,0.75,0],[0,0.5,0],[0,0.25,0]];verticalLabelPosition=bottom;html=1;verticalAlign=top;aspect=fixed;align=center;pointerEvents=1;shape=mxgraph.cisco19.rect;prIcon=web_application_firewall;fillColor=#FAFAFA;strokeColor=#005073;" parent="1" vertex="1">
          <mxGeometry x="390" y="809.9999999999999" width="101" height="78.9" as="geometry" />
        </mxCell>
        <mxCell id="gTKwi0WtYb4K1l9GXwkQ-206" value="" style="points=[[0.015,0.015,0],[0.985,0.015,0],[0.985,0.985,0],[0.015,0.985,0],[0.25,0,0],[0.5,0,0],[0.75,0,0],[1,0.25,0],[1,0.5,0],[1,0.75,0],[0.75,1,0],[0.5,1,0],[0.25,1,0],[0,0.75,0],[0,0.5,0],[0,0.25,0]];verticalLabelPosition=bottom;html=1;verticalAlign=top;aspect=fixed;align=center;pointerEvents=1;shape=mxgraph.cisco19.rect;prIcon=web_reputation_filtering;fillColor=#FAFAFA;strokeColor=#005073;" parent="1" vertex="1">
          <mxGeometry x="220" y="910" width="90" height="90" as="geometry" />
        </mxCell>
        <mxCell id="gTKwi0WtYb4K1l9GXwkQ-207" value="" style="points=[[0.015,0.015,0],[0.985,0.015,0],[0.985,0.985,0],[0.015,0.985,0],[0.25,0,0],[0.5,0,0],[0.75,0,0],[1,0.25,0],[1,0.5,0],[1,0.75,0],[0.75,1,0],[0.5,1,0],[0.25,1,0],[0,0.75,0],[0,0.5,0],[0,0.25,0]];verticalLabelPosition=bottom;html=1;verticalAlign=top;aspect=fixed;align=center;pointerEvents=1;shape=mxgraph.cisco19.rect;prIcon=anti_malware2;fillColor=#FAFAFA;strokeColor=#005073;" parent="1" vertex="1">
          <mxGeometry x="400" y="900" width="100" height="100" as="geometry" />
        </mxCell>
        <mxCell id="gTKwi0WtYb4K1l9GXwkQ-208" value="Web" style="points=[[0.015,0.015,0],[0.985,0.015,0],[0.985,0.985,0],[0.015,0.985,0],[0.25,0,0],[0.5,0,0],[0.75,0,0],[1,0.25,0],[1,0.5,0],[1,0.75,0],[0.75,1,0],[0.5,1,0],[0.25,1,0],[0,0.75,0],[0,0.5,0],[0,0.25,0]];verticalLabelPosition=bottom;html=1;verticalAlign=top;aspect=fixed;align=center;pointerEvents=1;shape=mxgraph.cisco19.server;fillColor=#005073;strokeColor=none;fontSize=18;" parent="1" vertex="1">
          <mxGeometry x="250" y="1110" width="82.5" height="150" as="geometry" />
        </mxCell>
        <mxCell id="gTKwi0WtYb4K1l9GXwkQ-209" value="Application" style="points=[[0.015,0.015,0],[0.985,0.015,0],[0.985,0.985,0],[0.015,0.985,0],[0.25,0,0],[0.5,0,0],[0.75,0,0],[1,0.25,0],[1,0.5,0],[1,0.75,0],[0.75,1,0],[0.5,1,0],[0.25,1,0],[0,0.75,0],[0,0.5,0],[0,0.25,0]];verticalLabelPosition=bottom;html=1;verticalAlign=top;aspect=fixed;align=center;pointerEvents=1;shape=mxgraph.cisco19.server;fillColor=#005073;strokeColor=none;fontSize=18;" parent="1" vertex="1">
          <mxGeometry x="370" y="1110" width="82.5" height="150" as="geometry" />
        </mxCell>
        <mxCell id="gTKwi0WtYb4K1l9GXwkQ-210" value="" style="points=[[0.5,0,0],[1,0.5,0],[0.5,1,0],[0,0.5,0],[0.145,0.145,0],[0.8555,0.145,0],[0.855,0.8555,0],[0.145,0.855,0]];verticalLabelPosition=bottom;html=1;verticalAlign=top;aspect=fixed;align=center;pointerEvents=1;shape=mxgraph.cisco19.rect;prIcon=router;fillColor=#FAFAFA;strokeColor=#005073;" parent="1" vertex="1">
          <mxGeometry x="320" y="970" width="65" height="65" as="geometry" />
        </mxCell>
        <mxCell id="gTKwi0WtYb4K1l9GXwkQ-216" value="" style="points=[[0.015,0.015,0],[0.985,0.015,0],[0.985,0.985,0],[0.015,0.985,0],[0.25,0,0],[0.5,0,0],[0.75,0,0],[1,0.25,0],[1,0.5,0],[1,0.75,0],[0.75,1,0],[0.5,1,0],[0.25,1,0],[0,0.75,0],[0,0.5,0],[0,0.25,0]];verticalLabelPosition=bottom;html=1;verticalAlign=top;aspect=fixed;align=center;pointerEvents=1;shape=mxgraph.cisco19.rect;prIcon=next_generation_intrusion_prevention_system;fillColor=#FAFAFA;strokeColor=#005073;" parent="1" vertex="1">
          <mxGeometry x="1750" y="560" width="91" height="91" as="geometry" />
        </mxCell>
        <mxCell id="gTKwi0WtYb4K1l9GXwkQ-219" value="" style="points=[[0.015,0.015,0],[0.985,0.015,0],[0.985,0.985,0],[0.015,0.985,0],[0.25,0,0],[0.5,0,0],[0.75,0,0],[1,0.25,0],[1,0.5,0],[1,0.75,0],[0.75,1,0],[0.5,1,0],[0.25,1,0],[0,0.75,0],[0,0.5,0],[0,0.25,0]];verticalLabelPosition=bottom;html=1;verticalAlign=top;aspect=fixed;align=center;pointerEvents=1;shape=mxgraph.cisco19.rect;prIcon=anti_malware2;fillColor=#FAFAFA;strokeColor=#005073;" parent="1" vertex="1">
          <mxGeometry x="1750" y="450" width="90" height="90" as="geometry" />
        </mxCell>
        <mxCell id="gTKwi0WtYb4K1l9GXwkQ-221" value="" style="points=[[0.015,0.015,0],[0.985,0.015,0],[0.985,0.985,0],[0.015,0.985,0],[0.25,0,0],[0.5,0,0],[0.75,0,0],[1,0.25,0],[1,0.5,0],[1,0.75,0],[0.75,1,0],[0.5,1,0],[0.25,1,0],[0,0.75,0],[0,0.5,0],[0,0.25,0]];verticalLabelPosition=bottom;html=1;verticalAlign=top;aspect=fixed;align=center;pointerEvents=1;shape=mxgraph.cisco19.rect;prIcon=ssl_terminator;fillColor=#FAFAFA;strokeColor=#005073;" parent="1" vertex="1">
          <mxGeometry x="1630" y="460" width="102.39" height="80" as="geometry" />
        </mxCell>
        <mxCell id="gTKwi0WtYb4K1l9GXwkQ-222" value="" style="points=[[0.015,0.015,0],[0.985,0.015,0],[0.985,0.985,0],[0.015,0.985,0],[0.25,0,0],[0.5,0,0],[0.75,0,0],[1,0.25,0],[1,0.5,0],[1,0.75,0],[0.75,1,0],[0.5,1,0],[0.25,1,0],[0,0.75,0],[0,0.5,0],[0,0.25,0]];verticalLabelPosition=bottom;html=1;verticalAlign=top;aspect=fixed;align=center;pointerEvents=1;shape=mxgraph.cisco19.rect;prIcon=firewall;fillColor=#FAFAFA;strokeColor=#005073;" parent="1" vertex="1">
          <mxGeometry x="1490" y="570" width="102.39" height="80" as="geometry" />
        </mxCell>
        <mxCell id="gTKwi0WtYb4K1l9GXwkQ-223" value="" style="points=[[0.015,0.015,0],[0.985,0.015,0],[0.985,0.985,0],[0.015,0.985,0],[0.25,0,0],[0.5,0,0],[0.75,0,0],[1,0.25,0],[1,0.5,0],[1,0.75,0],[0.75,1,0],[0.5,1,0],[0.25,1,0],[0,0.75,0],[0,0.5,0],[0,0.25,0]];verticalLabelPosition=bottom;html=1;verticalAlign=top;aspect=fixed;align=center;pointerEvents=1;shape=mxgraph.cisco19.rect;prIcon=ips_ids;fillColor=#FAFAFA;strokeColor=#005073;" parent="1" vertex="1">
          <mxGeometry x="1630" y="570" width="102.39" height="80" as="geometry" />
        </mxCell>
        <mxCell id="gTKwi0WtYb4K1l9GXwkQ-227" value="Data Base" style="points=[[0.015,0.015,0],[0.985,0.015,0],[0.985,0.985,0],[0.015,0.985,0],[0.25,0,0],[0.5,0,0],[0.75,0,0],[1,0.25,0],[1,0.5,0],[1,0.75,0],[0.75,1,0],[0.5,1,0],[0.25,1,0],[0,0.75,0],[0,0.5,0],[0,0.25,0]];verticalLabelPosition=bottom;html=1;verticalAlign=top;aspect=fixed;align=center;pointerEvents=1;shape=mxgraph.cisco19.server;fillColor=#005073;strokeColor=none;fontSize=18;" parent="1" vertex="1">
          <mxGeometry x="2470" y="510" width="71.5" height="130" as="geometry" />
        </mxCell>
        <mxCell id="gTKwi0WtYb4K1l9GXwkQ-228" value="Email Server" style="points=[[0.015,0.015,0],[0.985,0.015,0],[0.985,0.985,0],[0.015,0.985,0],[0.25,0,0],[0.5,0,0],[0.75,0,0],[1,0.25,0],[1,0.5,0],[1,0.75,0],[0.75,1,0],[0.5,1,0],[0.25,1,0],[0,0.75,0],[0,0.5,0],[0,0.25,0]];verticalLabelPosition=bottom;html=1;verticalAlign=top;aspect=fixed;align=center;pointerEvents=1;shape=mxgraph.cisco19.server;fillColor=#005073;strokeColor=none;fontSize=18;" parent="1" vertex="1">
          <mxGeometry x="2590" y="510" width="71.5" height="130" as="geometry" />
        </mxCell>
        <mxCell id="gTKwi0WtYb4K1l9GXwkQ-230" value="File Server" style="points=[[0.015,0.015,0],[0.985,0.015,0],[0.985,0.985,0],[0.015,0.985,0],[0.25,0,0],[0.5,0,0],[0.75,0,0],[1,0.25,0],[1,0.5,0],[1,0.75,0],[0.75,1,0],[0.5,1,0],[0.25,1,0],[0,0.75,0],[0,0.5,0],[0,0.25,0]];verticalLabelPosition=bottom;html=1;verticalAlign=top;aspect=fixed;align=center;pointerEvents=1;shape=mxgraph.cisco19.server;fillColor=#005073;strokeColor=none;fontSize=18;" parent="1" vertex="1">
          <mxGeometry x="2710" y="510" width="71.5" height="130" as="geometry" />
        </mxCell>
        <mxCell id="gTKwi0WtYb4K1l9GXwkQ-233" value="" style="endArrow=none;html=1;fillColor=#f8cecc;strokeColor=#6C8EBF;endSize=11;startSize=13;strokeWidth=4;exitX=0.626;exitY=0.015;exitDx=0;exitDy=0;exitPerimeter=0;" parent="1" source="gTKwi0WtYb4K1l9GXwkQ-192" edge="1">
          <mxGeometry width="50" height="50" relative="1" as="geometry">
            <mxPoint x="662" y="646" as="sourcePoint" />
            <mxPoint x="970" y="290" as="targetPoint" />
            <Array as="points" />
          </mxGeometry>
        </mxCell>
        <mxCell id="gTKwi0WtYb4K1l9GXwkQ-234" value="" style="endArrow=none;html=1;fillColor=#f8cecc;strokeColor=#6C8EBF;endSize=11;startSize=13;strokeWidth=4;exitX=0.908;exitY=0.227;exitDx=0;exitDy=0;exitPerimeter=0;" parent="1" source="gTKwi0WtYb4K1l9GXwkQ-192" edge="1">
          <mxGeometry width="50" height="50" relative="1" as="geometry">
            <mxPoint x="973" y="570" as="sourcePoint" />
            <mxPoint x="990" y="460" as="targetPoint" />
            <Array as="points" />
          </mxGeometry>
        </mxCell>
        <mxCell id="gTKwi0WtYb4K1l9GXwkQ-235" value="" style="endArrow=none;html=1;fillColor=#f8cecc;strokeColor=#6C8EBF;endSize=11;startSize=13;strokeWidth=4;entryX=0.007;entryY=0.06;entryDx=0;entryDy=0;entryPerimeter=0;exitX=1;exitY=0.5;exitDx=0;exitDy=0;exitPerimeter=0;" parent="1" source="gTKwi0WtYb4K1l9GXwkQ-192" target="gTKwi0WtYb4K1l9GXwkQ-196" edge="1">
          <mxGeometry width="50" height="50" relative="1" as="geometry">
            <mxPoint x="983" y="580" as="sourcePoint" />
            <mxPoint x="1090" y="322" as="targetPoint" />
            <Array as="points" />
          </mxGeometry>
        </mxCell>
        <mxCell id="gTKwi0WtYb4K1l9GXwkQ-236" value="" style="endArrow=none;html=1;fillColor=#f8cecc;strokeColor=#6C8EBF;endSize=11;startSize=13;strokeWidth=4;exitX=0.898;exitY=0.79;exitDx=0;exitDy=0;exitPerimeter=0;" parent="1" source="gTKwi0WtYb4K1l9GXwkQ-192" edge="1">
          <mxGeometry width="50" height="50" relative="1" as="geometry">
            <mxPoint x="1000" y="660" as="sourcePoint" />
            <mxPoint x="990" y="930" as="targetPoint" />
            <Array as="points" />
          </mxGeometry>
        </mxCell>
        <mxCell id="gTKwi0WtYb4K1l9GXwkQ-237" value="" style="endArrow=none;html=1;fillColor=#f8cecc;strokeColor=#6C8EBF;endSize=11;startSize=13;strokeWidth=4;exitX=0.5;exitY=1;exitDx=0;exitDy=0;exitPerimeter=0;" parent="1" source="gTKwi0WtYb4K1l9GXwkQ-192" edge="1">
          <mxGeometry width="50" height="50" relative="1" as="geometry">
            <mxPoint x="1003" y="600" as="sourcePoint" />
            <mxPoint x="960" y="1130" as="targetPoint" />
            <Array as="points" />
          </mxGeometry>
        </mxCell>
        <mxCell id="gTKwi0WtYb4K1l9GXwkQ-239" value="" style="endArrow=none;html=1;fillColor=#dae8fc;strokeColor=#6c8ebf;endSize=11;startSize=13;strokeWidth=4;entryX=0.145;entryY=0.145;entryDx=0;entryDy=0;entryPerimeter=0;" parent="1" target="gTKwi0WtYb4K1l9GXwkQ-202" edge="1">
          <mxGeometry width="50" height="50" relative="1" as="geometry">
            <mxPoint x="1350" y="520" as="sourcePoint" />
            <mxPoint x="1378" y="520" as="targetPoint" />
            <Array as="points" />
          </mxGeometry>
        </mxCell>
        <mxCell id="gTKwi0WtYb4K1l9GXwkQ-240" value="" style="endArrow=none;html=1;fillColor=#dae8fc;strokeColor=#6c8ebf;endSize=11;startSize=13;strokeWidth=4;exitX=0.989;exitY=0.132;exitDx=0;exitDy=0;exitPerimeter=0;" parent="1" source="gTKwi0WtYb4K1l9GXwkQ-196" edge="1">
          <mxGeometry width="50" height="50" relative="1" as="geometry">
            <mxPoint x="1292" y="322" as="sourcePoint" />
            <mxPoint x="1340" y="607" as="targetPoint" />
            <Array as="points" />
          </mxGeometry>
        </mxCell>
        <mxCell id="gTKwi0WtYb4K1l9GXwkQ-241" value="" style="endArrow=none;html=1;fillColor=#dae8fc;strokeColor=#6c8ebf;endSize=11;startSize=13;strokeWidth=4;entryX=0.5;entryY=1;entryDx=0;entryDy=0;entryPerimeter=0;" parent="1" target="gTKwi0WtYb4K1l9GXwkQ-202" edge="1">
          <mxGeometry width="50" height="50" relative="1" as="geometry">
            <mxPoint x="1370" y="950" as="sourcePoint" />
            <mxPoint x="1380" y="650" as="targetPoint" />
            <Array as="points" />
          </mxGeometry>
        </mxCell>
        <mxCell id="gTKwi0WtYb4K1l9GXwkQ-242" value="" style="endArrow=none;html=1;fillColor=#dae8fc;strokeColor=#6c8ebf;endSize=11;startSize=13;strokeWidth=4;entryX=0.086;entryY=0.77;entryDx=0;entryDy=0;entryPerimeter=0;" parent="1" target="gTKwi0WtYb4K1l9GXwkQ-202" edge="1">
          <mxGeometry width="50" height="50" relative="1" as="geometry">
            <mxPoint x="1340" y="1140" as="sourcePoint" />
            <mxPoint x="1345.5750000000003" y="625.6075000000001" as="targetPoint" />
            <Array as="points" />
          </mxGeometry>
        </mxCell>
        <mxCell id="gTKwi0WtYb4K1l9GXwkQ-243" value="" style="endArrow=none;html=1;fillColor=#dae8fc;strokeColor=#6c8ebf;endSize=11;startSize=13;strokeWidth=4;exitX=1.001;exitY=0.576;exitDx=0;exitDy=0;exitPerimeter=0;entryX=-0.005;entryY=0.465;entryDx=0;entryDy=0;entryPerimeter=0;" parent="1" source="gTKwi0WtYb4K1l9GXwkQ-202" target="gTKwi0WtYb4K1l9GXwkQ-222" edge="1">
          <mxGeometry width="50" height="50" relative="1" as="geometry">
            <mxPoint x="1282" y="840" as="sourcePoint" />
            <mxPoint x="1383" y="645" as="targetPoint" />
            <Array as="points" />
          </mxGeometry>
        </mxCell>
        <mxCell id="gTKwi0WtYb4K1l9GXwkQ-244" value="" style="endArrow=none;html=1;fillColor=#dae8fc;strokeColor=#6c8ebf;endSize=11;startSize=13;strokeWidth=4;exitX=0.5;exitY=0;exitDx=0;exitDy=0;exitPerimeter=0;entryX=0.5;entryY=1;entryDx=0;entryDy=0;entryPerimeter=0;" parent="1" source="gTKwi0WtYb4K1l9GXwkQ-222" target="soMEm7EijTwvb_dpSyn6-205" edge="1">
          <mxGeometry width="50" height="50" relative="1" as="geometry">
            <mxPoint x="1482" y="840" as="sourcePoint" />
            <mxPoint x="1583" y="645" as="targetPoint" />
            <Array as="points" />
          </mxGeometry>
        </mxCell>
        <mxCell id="gTKwi0WtYb4K1l9GXwkQ-245" value="" style="endArrow=none;html=1;fillColor=#dae8fc;strokeColor=#6c8ebf;endSize=11;startSize=13;strokeWidth=4;exitX=0.5;exitY=1;exitDx=0;exitDy=0;exitPerimeter=0;entryX=0.5;entryY=0;entryDx=0;entryDy=0;entryPerimeter=0;" parent="1" source="gTKwi0WtYb4K1l9GXwkQ-221" target="gTKwi0WtYb4K1l9GXwkQ-223" edge="1">
          <mxGeometry width="50" height="50" relative="1" as="geometry">
            <mxPoint x="1492" y="850" as="sourcePoint" />
            <mxPoint x="1593" y="655" as="targetPoint" />
            <Array as="points" />
          </mxGeometry>
        </mxCell>
        <mxCell id="gTKwi0WtYb4K1l9GXwkQ-247" value="" style="endArrow=none;html=1;fillColor=#dae8fc;strokeColor=#6c8ebf;endSize=11;startSize=13;strokeWidth=4;entryX=0.5;entryY=0;entryDx=0;entryDy=0;entryPerimeter=0;exitX=0.5;exitY=1;exitDx=0;exitDy=0;exitPerimeter=0;" parent="1" source="gTKwi0WtYb4K1l9GXwkQ-219" target="gTKwi0WtYb4K1l9GXwkQ-216" edge="1">
          <mxGeometry width="50" height="50" relative="1" as="geometry">
            <mxPoint x="1796" y="530" as="sourcePoint" />
            <mxPoint x="1613" y="675" as="targetPoint" />
            <Array as="points" />
          </mxGeometry>
        </mxCell>
        <mxCell id="gTKwi0WtYb4K1l9GXwkQ-248" value="" style="endArrow=none;html=1;fillColor=#dae8fc;strokeColor=#6c8ebf;endSize=11;startSize=13;strokeWidth=4;entryX=0.983;entryY=0.451;entryDx=0;entryDy=0;entryPerimeter=0;" parent="1" target="gTKwi0WtYb4K1l9GXwkQ-219" edge="1">
          <mxGeometry width="50" height="50" relative="1" as="geometry">
            <mxPoint x="1870" y="490" as="sourcePoint" />
            <mxPoint x="1623" y="685" as="targetPoint" />
            <Array as="points" />
          </mxGeometry>
        </mxCell>
        <mxCell id="gTKwi0WtYb4K1l9GXwkQ-249" value="" style="endArrow=none;html=1;fillColor=#dae8fc;strokeColor=#6c8ebf;endSize=11;startSize=13;strokeWidth=4;entryX=0.54;entryY=0.98;entryDx=0;entryDy=0;entryPerimeter=0;" parent="1" target="soMEm7EijTwvb_dpSyn6-198" edge="1">
          <mxGeometry width="50" height="50" relative="1" as="geometry">
            <mxPoint x="1900" y="490" as="sourcePoint" />
            <mxPoint x="1898" y="400" as="targetPoint" />
            <Array as="points" />
          </mxGeometry>
        </mxCell>
        <mxCell id="gTKwi0WtYb4K1l9GXwkQ-250" value="" style="endArrow=none;html=1;fillColor=#dae8fc;strokeColor=#6c8ebf;endSize=11;startSize=13;strokeWidth=4;exitX=1.007;exitY=0.456;exitDx=0;exitDy=0;exitPerimeter=0;entryX=0;entryY=0.5;entryDx=0;entryDy=0;" parent="1" source="gTKwi0WtYb4K1l9GXwkQ-193" target="gTKwi0WtYb4K1l9GXwkQ-252" edge="1">
          <mxGeometry width="50" height="50" relative="1" as="geometry">
            <mxPoint x="1462" y="900" as="sourcePoint" />
            <mxPoint x="2030" y="587" as="targetPoint" />
            <Array as="points" />
          </mxGeometry>
        </mxCell>
        <mxCell id="gTKwi0WtYb4K1l9GXwkQ-257" value="" style="endArrow=none;html=1;fillColor=#f8cecc;strokeColor=#6C8EBF;strokeWidth=4;exitX=0.997;exitY=0.683;exitDx=0;exitDy=0;exitPerimeter=0;entryX=0.031;entryY=0.636;entryDx=0;entryDy=0;entryPerimeter=0;" parent="1" source="ROe8e-lJCwvhkLjui_l0-219" target="gTKwi0WtYb4K1l9GXwkQ-173" edge="1">
          <mxGeometry width="50" height="50" relative="1" as="geometry">
            <mxPoint x="580" y="740" as="sourcePoint" />
            <mxPoint x="290" y="590" as="targetPoint" />
          </mxGeometry>
        </mxCell>
        <mxCell id="gTKwi0WtYb4K1l9GXwkQ-259" value="" style="endArrow=none;html=1;fillColor=#f8cecc;strokeColor=#6C8EBF;strokeWidth=4;exitX=0.992;exitY=0.651;exitDx=0;exitDy=0;exitPerimeter=0;entryX=0.01;entryY=0.535;entryDx=0;entryDy=0;entryPerimeter=0;" parent="1" source="gTKwi0WtYb4K1l9GXwkQ-173" target="gTKwi0WtYb4K1l9GXwkQ-187" edge="1">
          <mxGeometry width="50" height="50" relative="1" as="geometry">
            <mxPoint x="320" y="568" as="sourcePoint" />
            <mxPoint x="410" y="560" as="targetPoint" />
          </mxGeometry>
        </mxCell>
        <mxCell id="gTKwi0WtYb4K1l9GXwkQ-260" value="" style="endArrow=none;html=1;fillColor=#f8cecc;strokeColor=#6C8EBF;strokeWidth=4;entryX=0.49;entryY=0.013;entryDx=0;entryDy=0;entryPerimeter=0;" parent="1" target="gTKwi0WtYb4K1l9GXwkQ-187" edge="1">
          <mxGeometry width="50" height="50" relative="1" as="geometry">
            <mxPoint x="460" y="510" as="sourcePoint" />
            <mxPoint x="340" y="583" as="targetPoint" />
          </mxGeometry>
        </mxCell>
        <mxCell id="gTKwi0WtYb4K1l9GXwkQ-261" value="" style="endArrow=none;html=1;fillColor=#f8cecc;strokeColor=#6C8EBF;strokeWidth=4;entryX=0.457;entryY=-0.019;entryDx=0;entryDy=0;entryPerimeter=0;exitX=0.5;exitY=1;exitDx=0;exitDy=0;exitPerimeter=0;" parent="1" source="gTKwi0WtYb4K1l9GXwkQ-181" target="Rn4BWPrNsbCr0oajYnuM-189" edge="1">
          <mxGeometry width="50" height="50" relative="1" as="geometry">
            <mxPoint x="610" y="570" as="sourcePoint" />
            <mxPoint x="581" y="480" as="targetPoint" />
          </mxGeometry>
        </mxCell>
        <mxCell id="gTKwi0WtYb4K1l9GXwkQ-262" value="" style="endArrow=none;html=1;fillColor=#f8cecc;strokeColor=#6C8EBF;strokeWidth=4;exitX=0.5;exitY=0;exitDx=0;exitDy=0;exitPerimeter=0;" parent="1" source="soMEm7EijTwvb_dpSyn6-172" edge="1">
          <mxGeometry width="50" height="50" relative="1" as="geometry">
            <mxPoint x="591" y="580" as="sourcePoint" />
            <mxPoint x="721" y="579" as="targetPoint" />
          </mxGeometry>
        </mxCell>
        <mxCell id="gTKwi0WtYb4K1l9GXwkQ-263" value="" style="endArrow=none;html=1;fillColor=#f8cecc;strokeColor=#6C8EBF;strokeWidth=4;" parent="1" edge="1">
          <mxGeometry width="50" height="50" relative="1" as="geometry">
            <mxPoint x="630" y="630" as="sourcePoint" />
            <mxPoint x="680" y="630" as="targetPoint" />
          </mxGeometry>
        </mxCell>
        <mxCell id="gTKwi0WtYb4K1l9GXwkQ-265" value="" style="endArrow=none;html=1;fillColor=#f8cecc;strokeColor=#6C8EBF;strokeWidth=4;entryX=0.485;entryY=-0.006;entryDx=0;entryDy=0;entryPerimeter=0;exitX=0.459;exitY=0.997;exitDx=0;exitDy=0;exitPerimeter=0;" parent="1" source="gTKwi0WtYb4K1l9GXwkQ-173" target="gTKwi0WtYb4K1l9GXwkQ-203" edge="1">
          <mxGeometry width="50" height="50" relative="1" as="geometry">
            <mxPoint x="350" y="600" as="sourcePoint" />
            <mxPoint x="621" y="630" as="targetPoint" />
          </mxGeometry>
        </mxCell>
        <mxCell id="gTKwi0WtYb4K1l9GXwkQ-266" value="" style="endArrow=none;html=1;fillColor=#f8cecc;strokeColor=#6C8EBF;strokeWidth=4;entryX=0.991;entryY=0.401;entryDx=0;entryDy=0;entryPerimeter=0;exitX=-0.004;exitY=0.544;exitDx=0;exitDy=0;exitPerimeter=0;" parent="1" source="gTKwi0WtYb4K1l9GXwkQ-191" target="gTKwi0WtYb4K1l9GXwkQ-175" edge="1">
          <mxGeometry width="50" height="50" relative="1" as="geometry">
            <mxPoint x="764" y="537" as="sourcePoint" />
            <mxPoint x="810" y="593" as="targetPoint" />
          </mxGeometry>
        </mxCell>
        <mxCell id="gTKwi0WtYb4K1l9GXwkQ-267" value="" style="endArrow=none;html=1;fillColor=#f8cecc;strokeColor=#6C8EBF;strokeWidth=4;exitX=0.5;exitY=1;exitDx=0;exitDy=0;exitPerimeter=0;" parent="1" edge="1">
          <mxGeometry width="50" height="50" relative="1" as="geometry">
            <mxPoint x="399.99500000000006" y="680" as="sourcePoint" />
            <mxPoint x="440" y="680" as="targetPoint" />
          </mxGeometry>
        </mxCell>
        <mxCell id="gTKwi0WtYb4K1l9GXwkQ-268" value="" style="endArrow=none;html=1;fillColor=#f8cecc;strokeColor=#6C8EBF;strokeWidth=4;entryX=0.987;entryY=0.552;entryDx=0;entryDy=0;entryPerimeter=0;exitX=0.012;exitY=0.636;exitDx=0;exitDy=0;exitPerimeter=0;" parent="1" source="gTKwi0WtYb4K1l9GXwkQ-205" target="gTKwi0WtYb4K1l9GXwkQ-204" edge="1">
          <mxGeometry width="50" height="50" relative="1" as="geometry">
            <mxPoint x="784" y="557" as="sourcePoint" />
            <mxPoint x="830" y="613" as="targetPoint" />
          </mxGeometry>
        </mxCell>
        <mxCell id="gTKwi0WtYb4K1l9GXwkQ-270" value="" style="endArrow=none;html=1;fillColor=#f8cecc;strokeColor=#6C8EBF;strokeWidth=4;entryX=0;entryY=0.5;entryDx=0;entryDy=0;entryPerimeter=0;exitX=1.002;exitY=0.447;exitDx=0;exitDy=0;exitPerimeter=0;" parent="1" source="gTKwi0WtYb4K1l9GXwkQ-206" target="gTKwi0WtYb4K1l9GXwkQ-207" edge="1">
          <mxGeometry width="50" height="50" relative="1" as="geometry">
            <mxPoint x="804" y="577" as="sourcePoint" />
            <mxPoint x="850" y="633" as="targetPoint" />
          </mxGeometry>
        </mxCell>
        <mxCell id="gTKwi0WtYb4K1l9GXwkQ-272" value="" style="endArrow=none;html=1;fillColor=#f8cecc;strokeColor=#6C8EBF;strokeWidth=4;entryX=0.4;entryY=0.01;entryDx=0;entryDy=0;entryPerimeter=0;exitX=0.455;exitY=1.006;exitDx=0;exitDy=0;exitPerimeter=0;" parent="1" source="gTKwi0WtYb4K1l9GXwkQ-210" target="gTKwi0WtYb4K1l9GXwkQ-275" edge="1">
          <mxGeometry width="50" height="50" relative="1" as="geometry">
            <mxPoint x="340" y="1020" as="sourcePoint" />
            <mxPoint x="540" y="950" as="targetPoint" />
          </mxGeometry>
        </mxCell>
        <mxCell id="gTKwi0WtYb4K1l9GXwkQ-274" value="&lt;font style=&quot;font-size: 26px;&quot;&gt;Data Center&lt;br&gt;&lt;/font&gt;" style="text;html=1;align=center;verticalAlign=middle;resizable=0;points=[];autosize=1;strokeColor=none;fillColor=none;" parent="1" vertex="1">
          <mxGeometry x="2070" y="670" width="160" height="40" as="geometry" />
        </mxCell>
        <mxCell id="gTKwi0WtYb4K1l9GXwkQ-279" value="" style="endArrow=none;html=1;fillColor=#f8cecc;strokeColor=#6C8EBF;strokeWidth=4;entryX=0.8555;entryY=0.145;entryDx=0;entryDy=0;entryPerimeter=0;exitX=0.002;exitY=0.79;exitDx=0;exitDy=0;exitPerimeter=0;" parent="1" source="gTKwi0WtYb4K1l9GXwkQ-207" target="gTKwi0WtYb4K1l9GXwkQ-210" edge="1">
          <mxGeometry width="50" height="50" relative="1" as="geometry">
            <mxPoint x="440" y="960" as="sourcePoint" />
            <mxPoint x="450" y="970" as="targetPoint" />
          </mxGeometry>
        </mxCell>
        <mxCell id="gTKwi0WtYb4K1l9GXwkQ-280" value="" style="endArrow=none;html=1;fillColor=#f8cecc;strokeColor=#6C8EBF;strokeWidth=4;entryX=0;entryY=0.5;entryDx=0;entryDy=0;entryPerimeter=0;" parent="1" source="Rn4BWPrNsbCr0oajYnuM-187" target="Rn4BWPrNsbCr0oajYnuM-192" edge="1">
          <mxGeometry width="50" height="50" relative="1" as="geometry">
            <mxPoint x="440" y="680" as="sourcePoint" />
            <mxPoint x="450" y="690" as="targetPoint" />
          </mxGeometry>
        </mxCell>
        <mxCell id="gTKwi0WtYb4K1l9GXwkQ-281" value="" style="endArrow=none;html=1;fillColor=#f8cecc;strokeColor=#6C8EBF;strokeWidth=4;entryX=-0.014;entryY=0.373;entryDx=0;entryDy=0;entryPerimeter=0;" parent="1" target="gTKwi0WtYb4K1l9GXwkQ-181" edge="1">
          <mxGeometry width="50" height="50" relative="1" as="geometry">
            <mxPoint x="460" y="510" as="sourcePoint" />
            <mxPoint x="530.6143400000001" y="509.76" as="targetPoint" />
          </mxGeometry>
        </mxCell>
        <mxCell id="gTKwi0WtYb4K1l9GXwkQ-282" value="" style="endArrow=none;html=1;fillColor=#f8cecc;strokeColor=#6C8EBF;strokeWidth=4;exitX=0;exitY=0.5;exitDx=0;exitDy=0;exitPerimeter=0;" parent="1" source="gTKwi0WtYb4K1l9GXwkQ-192" edge="1">
          <mxGeometry width="50" height="50" relative="1" as="geometry">
            <mxPoint x="890" y="540" as="sourcePoint" />
            <mxPoint x="930" y="520" as="targetPoint" />
          </mxGeometry>
        </mxCell>
        <mxCell id="gTKwi0WtYb4K1l9GXwkQ-284" value="" style="endArrow=none;html=1;fillColor=#f8cecc;strokeColor=#6C8EBF;endSize=11;startSize=13;strokeWidth=4;exitX=0.005;exitY=0.939;exitDx=0;exitDy=0;exitPerimeter=0;" parent="1" source="ROe8e-lJCwvhkLjui_l0-172" edge="1">
          <mxGeometry width="50" height="50" relative="1" as="geometry">
            <mxPoint x="976" y="571" as="sourcePoint" />
            <mxPoint x="970" y="290" as="targetPoint" />
            <Array as="points" />
          </mxGeometry>
        </mxCell>
        <mxCell id="gTKwi0WtYb4K1l9GXwkQ-285" value="" style="endArrow=none;html=1;fillColor=#f8cecc;strokeColor=#6C8EBF;endSize=11;startSize=13;strokeWidth=4;exitX=-0.005;exitY=0.593;exitDx=0;exitDy=0;exitPerimeter=0;" parent="1" source="gTKwi0WtYb4K1l9GXwkQ-194" edge="1">
          <mxGeometry width="50" height="50" relative="1" as="geometry">
            <mxPoint x="996" y="579" as="sourcePoint" />
            <mxPoint x="990" y="460" as="targetPoint" />
            <Array as="points" />
          </mxGeometry>
        </mxCell>
        <mxCell id="gTKwi0WtYb4K1l9GXwkQ-286" value="" style="endArrow=none;html=1;fillColor=#f8cecc;strokeColor=#6C8EBF;endSize=11;startSize=13;strokeWidth=4;entryX=-0.002;entryY=0.36;entryDx=0;entryDy=0;entryPerimeter=0;" parent="1" target="gTKwi0WtYb4K1l9GXwkQ-200" edge="1">
          <mxGeometry width="50" height="50" relative="1" as="geometry">
            <mxPoint x="960" y="1130" as="sourcePoint" />
            <mxPoint x="973" y="1130" as="targetPoint" />
            <Array as="points" />
          </mxGeometry>
        </mxCell>
        <mxCell id="gTKwi0WtYb4K1l9GXwkQ-288" value="" style="endArrow=none;html=1;fillColor=#f8cecc;strokeColor=#6C8EBF;endSize=11;startSize=13;strokeWidth=4;entryX=0;entryY=0.5;entryDx=0;entryDy=0;entryPerimeter=0;" parent="1" target="gTKwi0WtYb4K1l9GXwkQ-198" edge="1">
          <mxGeometry width="50" height="50" relative="1" as="geometry">
            <mxPoint x="990" y="930" as="sourcePoint" />
            <mxPoint x="996" y="941" as="targetPoint" />
            <Array as="points" />
          </mxGeometry>
        </mxCell>
        <mxCell id="gTKwi0WtYb4K1l9GXwkQ-289" value="" style="endArrow=none;html=1;fillColor=#dae8fc;strokeColor=#6c8ebf;endSize=11;startSize=13;strokeWidth=4;exitX=1;exitY=1;exitDx=0;exitDy=0;exitPerimeter=0;" parent="1" edge="1">
          <mxGeometry width="50" height="50" relative="1" as="geometry">
            <mxPoint x="1272" y="290" as="sourcePoint" />
            <mxPoint x="1380" y="290" as="targetPoint" />
            <Array as="points" />
          </mxGeometry>
        </mxCell>
        <mxCell id="gTKwi0WtYb4K1l9GXwkQ-290" value="" style="endArrow=none;html=1;fillColor=#dae8fc;strokeColor=#6c8ebf;endSize=11;startSize=13;strokeWidth=4;exitX=1;exitY=1;exitDx=0;exitDy=0;exitPerimeter=0;" parent="1" edge="1">
          <mxGeometry width="50" height="50" relative="1" as="geometry">
            <mxPoint x="1270" y="520" as="sourcePoint" />
            <mxPoint x="1350" y="520" as="targetPoint" />
            <Array as="points" />
          </mxGeometry>
        </mxCell>
        <mxCell id="gTKwi0WtYb4K1l9GXwkQ-291" value="" style="endArrow=none;html=1;fillColor=#dae8fc;strokeColor=#6c8ebf;endSize=11;startSize=13;strokeWidth=4;exitX=1;exitY=1;exitDx=0;exitDy=0;exitPerimeter=0;" parent="1" edge="1">
          <mxGeometry width="50" height="50" relative="1" as="geometry">
            <mxPoint x="1378" y="290" as="sourcePoint" />
            <mxPoint x="1377" y="570" as="targetPoint" />
            <Array as="points" />
          </mxGeometry>
        </mxCell>
        <mxCell id="gTKwi0WtYb4K1l9GXwkQ-292" value="" style="endArrow=none;html=1;fillColor=#dae8fc;strokeColor=#6c8ebf;endSize=11;startSize=13;strokeWidth=4;exitX=0.996;exitY=0.585;exitDx=0;exitDy=0;exitPerimeter=0;" parent="1" source="gTKwi0WtYb4K1l9GXwkQ-198" edge="1">
          <mxGeometry width="50" height="50" relative="1" as="geometry">
            <mxPoint x="1301" y="900" as="sourcePoint" />
            <mxPoint x="1370" y="948" as="targetPoint" />
            <Array as="points" />
          </mxGeometry>
        </mxCell>
        <mxCell id="gTKwi0WtYb4K1l9GXwkQ-294" value="" style="endArrow=none;html=1;fillColor=#dae8fc;strokeColor=#6c8ebf;endSize=11;startSize=13;strokeWidth=4;exitX=0.996;exitY=0.585;exitDx=0;exitDy=0;exitPerimeter=0;" parent="1" edge="1">
          <mxGeometry width="50" height="50" relative="1" as="geometry">
            <mxPoint x="1271" y="1140" as="sourcePoint" />
            <mxPoint x="1340" y="1140" as="targetPoint" />
            <Array as="points" />
          </mxGeometry>
        </mxCell>
        <mxCell id="soMEm7EijTwvb_dpSyn6-172" value="" style="points=[[0.015,0.015,0],[0.985,0.015,0],[0.985,0.985,0],[0.015,0.985,0],[0.25,0,0],[0.5,0,0],[0.75,0,0],[1,0.25,0],[1,0.5,0],[1,0.75,0],[0.75,1,0],[0.5,1,0],[0.25,1,0],[0,0.75,0],[0,0.5,0],[0,0.25,0]];verticalLabelPosition=bottom;html=1;verticalAlign=top;aspect=fixed;align=center;pointerEvents=1;shape=mxgraph.cisco19.rect;prIcon=ips_ids;fillColor=#FAFAFA;strokeColor=#005073;" parent="1" vertex="1">
          <mxGeometry x="670" y="590" width="102.39" height="80" as="geometry" />
        </mxCell>
        <mxCell id="soMEm7EijTwvb_dpSyn6-174" value="x" style="points=[[0.015,0.015,0],[0.985,0.015,0],[0.985,0.985,0],[0.015,0.985,0],[0.25,0,0],[0.5,0,0],[0.75,0,0],[1,0.25,0],[1,0.5,0],[1,0.75,0],[0.75,1,0],[0.5,1,0],[0.25,1,0],[0,0.75,0],[0,0.5,0],[0,0.25,0]];verticalLabelPosition=bottom;html=1;verticalAlign=top;aspect=fixed;align=center;pointerEvents=1;shape=mxgraph.cisco19.rect;prIcon=email_security;fillColor=#FAFAFA;strokeColor=#005073;" parent="1" vertex="1">
          <mxGeometry x="2600" y="560" width="76.8" height="60" as="geometry" />
        </mxCell>
        <mxCell id="soMEm7EijTwvb_dpSyn6-175" value="" style="points=[[0.015,0.015,0],[0.985,0.015,0],[0.985,0.985,0],[0.015,0.985,0],[0.25,0,0],[0.5,0,0],[0.75,0,0],[1,0.25,0],[1,0.5,0],[1,0.75,0],[0.75,1,0],[0.5,1,0],[0.25,1,0],[0,0.75,0],[0,0.5,0],[0,0.25,0]];verticalLabelPosition=bottom;html=1;verticalAlign=top;aspect=fixed;align=center;pointerEvents=1;shape=mxgraph.cisco19.rect;prIcon=email_security;fillColor=#FAFAFA;strokeColor=#005073;" parent="1" vertex="1">
          <mxGeometry x="1100" y="240" width="38.4" height="30" as="geometry" />
        </mxCell>
        <mxCell id="soMEm7EijTwvb_dpSyn6-177" value="" style="points=[[0.015,0.015,0],[0.985,0.015,0],[0.985,0.985,0],[0.015,0.985,0],[0.25,0,0],[0.5,0,0],[0.75,0,0],[1,0.25,0],[1,0.5,0],[1,0.75,0],[0.75,1,0],[0.5,1,0],[0.25,1,0],[0,0.75,0],[0,0.5,0],[0,0.25,0]];verticalLabelPosition=bottom;html=1;verticalAlign=top;aspect=fixed;align=center;pointerEvents=1;shape=mxgraph.cisco19.rect;prIcon=email_security;fillColor=#FAFAFA;strokeColor=#005073;" parent="1" vertex="1">
          <mxGeometry x="1100" y="480" width="38.4" height="30" as="geometry" />
        </mxCell>
        <mxCell id="soMEm7EijTwvb_dpSyn6-178" value="" style="points=[[0.015,0.015,0],[0.985,0.015,0],[0.985,0.985,0],[0.015,0.985,0],[0.25,0,0],[0.5,0,0],[0.75,0,0],[1,0.25,0],[1,0.5,0],[1,0.75,0],[0.75,1,0],[0.5,1,0],[0.25,1,0],[0,0.75,0],[0,0.5,0],[0,0.25,0]];verticalLabelPosition=bottom;html=1;verticalAlign=top;aspect=fixed;align=center;pointerEvents=1;shape=mxgraph.cisco19.rect;prIcon=email_security;fillColor=#FAFAFA;strokeColor=#005073;" parent="1" vertex="1">
          <mxGeometry x="1100" y="720" width="38.4" height="30" as="geometry" />
        </mxCell>
        <mxCell id="soMEm7EijTwvb_dpSyn6-179" value="" style="points=[[0.015,0.015,0],[0.985,0.015,0],[0.985,0.985,0],[0.015,0.985,0],[0.25,0,0],[0.5,0,0],[0.75,0,0],[1,0.25,0],[1,0.5,0],[1,0.75,0],[0.75,1,0],[0.5,1,0],[0.25,1,0],[0,0.75,0],[0,0.5,0],[0,0.25,0]];verticalLabelPosition=bottom;html=1;verticalAlign=top;aspect=fixed;align=center;pointerEvents=1;shape=mxgraph.cisco19.rect;prIcon=email_security;fillColor=#FAFAFA;strokeColor=#005073;" parent="1" vertex="1">
          <mxGeometry x="1100" y="970" width="38.4" height="30" as="geometry" />
        </mxCell>
        <mxCell id="soMEm7EijTwvb_dpSyn6-180" value="" style="points=[[0.015,0.015,0],[0.985,0.015,0],[0.985,0.985,0],[0.015,0.985,0],[0.25,0,0],[0.5,0,0],[0.75,0,0],[1,0.25,0],[1,0.5,0],[1,0.75,0],[0.75,1,0],[0.5,1,0],[0.25,1,0],[0,0.75,0],[0,0.5,0],[0,0.25,0]];verticalLabelPosition=bottom;html=1;verticalAlign=top;aspect=fixed;align=center;pointerEvents=1;shape=mxgraph.cisco19.rect;prIcon=email_security;fillColor=#FAFAFA;strokeColor=#005073;" parent="1" vertex="1">
          <mxGeometry x="1100" y="1200" width="38.4" height="30" as="geometry" />
        </mxCell>
        <mxCell id="soMEm7EijTwvb_dpSyn6-181" value="Branch" style="text;html=1;align=center;verticalAlign=middle;resizable=0;points=[];autosize=1;strokeColor=none;fillColor=none;" parent="1" vertex="1">
          <mxGeometry x="1140" y="298" width="60" height="30" as="geometry" />
        </mxCell>
        <mxCell id="soMEm7EijTwvb_dpSyn6-182" value="Branch" style="text;html=1;align=center;verticalAlign=middle;resizable=0;points=[];autosize=1;strokeColor=none;fillColor=none;" parent="1" vertex="1">
          <mxGeometry x="1140" y="540" width="60" height="30" as="geometry" />
        </mxCell>
        <mxCell id="soMEm7EijTwvb_dpSyn6-183" value="Main Office" style="text;html=1;align=center;verticalAlign=middle;resizable=0;points=[];autosize=1;strokeColor=none;fillColor=none;" parent="1" vertex="1">
          <mxGeometry x="1130" y="778" width="80" height="30" as="geometry" />
        </mxCell>
        <mxCell id="soMEm7EijTwvb_dpSyn6-185" value="Branch" style="text;html=1;align=center;verticalAlign=middle;resizable=0;points=[];autosize=1;strokeColor=none;fillColor=none;" parent="1" vertex="1">
          <mxGeometry x="1140" y="1028" width="60" height="30" as="geometry" />
        </mxCell>
        <mxCell id="soMEm7EijTwvb_dpSyn6-186" value="Branch" style="text;html=1;align=center;verticalAlign=middle;resizable=0;points=[];autosize=1;strokeColor=none;fillColor=none;" parent="1" vertex="1">
          <mxGeometry x="1140" y="1258" width="60" height="30" as="geometry" />
        </mxCell>
        <mxCell id="soMEm7EijTwvb_dpSyn6-187" value="VPN 1&#39;" style="text;html=1;align=center;verticalAlign=middle;resizable=0;points=[];autosize=1;strokeColor=none;fillColor=none;" parent="1" vertex="1">
          <mxGeometry x="550" y="458" width="60" height="30" as="geometry" />
        </mxCell>
        <mxCell id="soMEm7EijTwvb_dpSyn6-189" value="" style="endArrow=none;html=1;fillColor=#dae8fc;strokeColor=#6c8ebf;endSize=11;startSize=13;strokeWidth=4;exitX=1.001;exitY=0.546;exitDx=0;exitDy=0;exitPerimeter=0;entryX=-0.002;entryY=0.595;entryDx=0;entryDy=0;entryPerimeter=0;" parent="1" target="soMEm7EijTwvb_dpSyn6-188" edge="1">
          <mxGeometry width="50" height="50" relative="1" as="geometry">
            <mxPoint x="1984.0939999999996" y="590.09824" as="sourcePoint" />
            <mxPoint x="2030" y="590" as="targetPoint" />
            <Array as="points" />
          </mxGeometry>
        </mxCell>
        <mxCell id="soMEm7EijTwvb_dpSyn6-194" value="" style="endArrow=none;html=1;fillColor=#dae8fc;strokeColor=#6c8ebf;endSize=11;startSize=13;strokeWidth=4;exitX=0.425;exitY=0.011;exitDx=0;exitDy=0;exitPerimeter=0;" parent="1" edge="1">
          <mxGeometry width="50" height="50" relative="1" as="geometry">
            <mxPoint x="1929.9500000000003" y="550.8078399999999" as="sourcePoint" />
            <mxPoint x="1930" y="490" as="targetPoint" />
            <Array as="points" />
          </mxGeometry>
        </mxCell>
        <mxCell id="soMEm7EijTwvb_dpSyn6-196" value="" style="endArrow=none;html=1;fillColor=#dae8fc;strokeColor=#6c8ebf;endSize=11;startSize=13;strokeWidth=4;" parent="1" edge="1">
          <mxGeometry width="50" height="50" relative="1" as="geometry">
            <mxPoint x="1928.83" y="490" as="sourcePoint" />
            <mxPoint x="1870" y="490" as="targetPoint" />
            <Array as="points" />
          </mxGeometry>
        </mxCell>
        <mxCell id="soMEm7EijTwvb_dpSyn6-198" value="" style="points=[[0.015,0.015,0],[0.985,0.015,0],[0.985,0.985,0],[0.015,0.985,0],[0.25,0,0],[0.5,0,0],[0.75,0,0],[1,0.25,0],[1,0.5,0],[1,0.75,0],[0.75,1,0],[0.5,1,0],[0.25,1,0],[0,0.75,0],[0,0.5,0],[0,0.25,0]];verticalLabelPosition=bottom;html=1;verticalAlign=top;aspect=fixed;align=center;pointerEvents=1;shape=mxgraph.cisco19.secure_server;fillColor=#005073;strokeColor=none;" parent="1" vertex="1">
          <mxGeometry x="1860" y="270" width="73.43" height="133.51" as="geometry" />
        </mxCell>
        <mxCell id="soMEm7EijTwvb_dpSyn6-188" value="" style="points=[[0.5,0,0],[1,0.34,0],[1,1],[0.75,1,0],[0.5,1,0],[0.25,1,0],[0,1,0],[0,0.34,0],[1,0.67,0],[0,0.67,0],[0.325,0,0],[0.675,0,0]];verticalLabelPosition=bottom;html=1;verticalAlign=top;aspect=fixed;align=center;pointerEvents=1;shape=mxgraph.cisco19.data_center;fillColor=#005073;strokeColor=none;" parent="1" vertex="1">
          <mxGeometry x="2020" y="480" width="267.14" height="187" as="geometry" />
        </mxCell>
        <mxCell id="soMEm7EijTwvb_dpSyn6-202" value="" style="endArrow=none;html=1;fillColor=#dae8fc;strokeColor=#6c8ebf;endSize=11;startSize=13;strokeWidth=4;exitX=0.992;exitY=0.584;exitDx=0;exitDy=0;exitPerimeter=0;" parent="1" source="soMEm7EijTwvb_dpSyn6-188" edge="1">
          <mxGeometry width="50" height="50" relative="1" as="geometry">
            <mxPoint x="2285" y="589" as="sourcePoint" />
            <mxPoint x="2330" y="589" as="targetPoint" />
            <Array as="points" />
          </mxGeometry>
        </mxCell>
        <mxCell id="gTKwi0WtYb4K1l9GXwkQ-193" value="" style="points=[[0.5,0,0],[1,0.5,0],[0.5,1,0],[0,0.5,0],[0.145,0.145,0],[0.8555,0.145,0],[0.855,0.8555,0],[0.145,0.855,0]];verticalLabelPosition=bottom;html=1;verticalAlign=top;aspect=fixed;align=center;pointerEvents=1;shape=mxgraph.cisco19.rect;prIcon=router;fillColor=#FAFAFA;strokeColor=#005073;" parent="1" vertex="1">
          <mxGeometry x="2330" y="560" width="65" height="65" as="geometry" />
        </mxCell>
        <mxCell id="soMEm7EijTwvb_dpSyn6-203" value="&lt;font style=&quot;font-size: 26px;&quot;&gt;Server Farm&lt;/font&gt;" style="text;html=1;align=center;verticalAlign=middle;resizable=0;points=[];autosize=1;strokeColor=none;fillColor=none;" parent="1" vertex="1">
          <mxGeometry x="2550" y="690" width="170" height="40" as="geometry" />
        </mxCell>
        <mxCell id="soMEm7EijTwvb_dpSyn6-204" value="" style="points=[[0.015,0.015,0],[0.985,0.015,0],[0.985,0.985,0],[0.015,0.985,0],[0.25,0,0],[0.5,0,0],[0.75,0,0],[1,0.25,0],[1,0.5,0],[1,0.75,0],[0.75,1,0],[0.5,1,0],[0.25,1,0],[0,0.75,0],[0,0.5,0],[0,0.25,0]];verticalLabelPosition=bottom;html=1;verticalAlign=top;aspect=fixed;align=center;pointerEvents=1;shape=mxgraph.cisco19.rect;prIcon=acs;fillColor=#FAFAFA;strokeColor=#005073;" parent="1" vertex="1">
          <mxGeometry x="1890" y="550" width="94" height="73.44" as="geometry" />
        </mxCell>
        <mxCell id="soMEm7EijTwvb_dpSyn6-205" value="" style="points=[[0.015,0.015,0],[0.985,0.015,0],[0.985,0.985,0],[0.015,0.985,0],[0.25,0,0],[0.5,0,0],[0.75,0,0],[1,0.25,0],[1,0.5,0],[1,0.75,0],[0.75,1,0],[0.5,1,0],[0.25,1,0],[0,0.75,0],[0,0.5,0],[0,0.25,0]];verticalLabelPosition=bottom;html=1;verticalAlign=top;aspect=fixed;align=center;pointerEvents=1;shape=mxgraph.cisco19.rect;prIcon=virtual_private_network2;fillColor=#FAFAFA;strokeColor=#005073;" parent="1" vertex="1">
          <mxGeometry x="1490.0000000000002" y="460" width="102.4" height="80" as="geometry" />
        </mxCell>
        <mxCell id="soMEm7EijTwvb_dpSyn6-209" value="" style="endArrow=none;html=1;fillColor=#dae8fc;strokeColor=#6c8ebf;endSize=11;startSize=13;strokeWidth=4;exitX=1;exitY=0.5;exitDx=0;exitDy=0;exitPerimeter=0;entryX=0;entryY=0.5;entryDx=0;entryDy=0;entryPerimeter=0;" parent="1" source="soMEm7EijTwvb_dpSyn6-205" target="gTKwi0WtYb4K1l9GXwkQ-221" edge="1">
          <mxGeometry width="50" height="50" relative="1" as="geometry">
            <mxPoint x="1415" y="617" as="sourcePoint" />
            <mxPoint x="1499" y="617" as="targetPoint" />
            <Array as="points" />
          </mxGeometry>
        </mxCell>
        <mxCell id="soMEm7EijTwvb_dpSyn6-212" value="" style="endArrow=none;html=1;fillColor=#dae8fc;strokeColor=#6c8ebf;endSize=11;startSize=13;strokeWidth=4;entryX=0.015;entryY=0.542;entryDx=0;entryDy=0;entryPerimeter=0;exitX=1;exitY=0.5;exitDx=0;exitDy=0;exitPerimeter=0;" parent="1" source="gTKwi0WtYb4K1l9GXwkQ-223" target="gTKwi0WtYb4K1l9GXwkQ-216" edge="1">
          <mxGeometry width="50" height="50" relative="1" as="geometry">
            <mxPoint x="1806" y="550" as="sourcePoint" />
            <mxPoint x="1806" y="570" as="targetPoint" />
            <Array as="points" />
          </mxGeometry>
        </mxCell>
        <mxCell id="soMEm7EijTwvb_dpSyn6-213" value="VPN 2&#39;" style="text;html=1;align=center;verticalAlign=middle;resizable=0;points=[];autosize=1;strokeColor=none;fillColor=none;" parent="1" vertex="1">
          <mxGeometry x="1510" y="428" width="60" height="30" as="geometry" />
        </mxCell>
        <mxCell id="Rn4BWPrNsbCr0oajYnuM-171" value="Demilitarized zone" style="text;html=1;align=center;verticalAlign=middle;resizable=0;points=[];autosize=1;strokeColor=none;fillColor=none;fontSize=31;" parent="1" vertex="1">
          <mxGeometry x="220" y="1338" width="280" height="50" as="geometry" />
        </mxCell>
        <mxCell id="Rn4BWPrNsbCr0oajYnuM-174" value="" style="endArrow=none;html=1;fillColor=#f8cecc;strokeColor=#6C8EBF;strokeWidth=4;" parent="1" source="soMEm7EijTwvb_dpSyn6-187" edge="1">
          <mxGeometry width="50" height="50" relative="1" as="geometry">
            <mxPoint x="591" y="570" as="sourcePoint" />
            <mxPoint x="580" y="320" as="targetPoint" />
          </mxGeometry>
        </mxCell>
        <mxCell id="Rn4BWPrNsbCr0oajYnuM-175" value="" style="points=[[0.015,0.015,0],[0.985,0.015,0],[0.985,0.985,0],[0.015,0.985,0],[0.25,0,0],[0.5,0,0],[0.75,0,0],[1,0.25,0],[1,0.5,0],[1,0.75,0],[0.75,1,0],[0.5,1,0],[0.25,1,0],[0,0.75,0],[0,0.5,0],[0,0.25,0]];verticalLabelPosition=bottom;html=1;verticalAlign=top;aspect=fixed;align=center;pointerEvents=1;shape=mxgraph.cisco19.rect;prIcon=virtual_private_network2;fillColor=#FAFAFA;strokeColor=#005073;" parent="1" vertex="1">
          <mxGeometry x="530" y="240" width="102.4" height="80" as="geometry" />
        </mxCell>
        <mxCell id="Rn4BWPrNsbCr0oajYnuM-176" value="VPN 1 (For outstation workers)" style="text;html=1;align=center;verticalAlign=middle;resizable=0;points=[];autosize=1;strokeColor=none;fillColor=none;" parent="1" vertex="1">
          <mxGeometry x="485" y="208" width="190" height="30" as="geometry" />
        </mxCell>
        <mxCell id="Rn4BWPrNsbCr0oajYnuM-178" value="" style="endArrow=none;html=1;fillColor=#f8cecc;strokeColor=#6C8EBF;strokeWidth=4;" parent="1" edge="1">
          <mxGeometry width="50" height="50" relative="1" as="geometry">
            <mxPoint x="1540" y="438" as="sourcePoint" />
            <mxPoint x="1540" y="300" as="targetPoint" />
          </mxGeometry>
        </mxCell>
        <mxCell id="Rn4BWPrNsbCr0oajYnuM-179" value="" style="points=[[0.015,0.015,0],[0.985,0.015,0],[0.985,0.985,0],[0.015,0.985,0],[0.25,0,0],[0.5,0,0],[0.75,0,0],[1,0.25,0],[1,0.5,0],[1,0.75,0],[0.75,1,0],[0.5,1,0],[0.25,1,0],[0,0.75,0],[0,0.5,0],[0,0.25,0]];verticalLabelPosition=bottom;html=1;verticalAlign=top;aspect=fixed;align=center;pointerEvents=1;shape=mxgraph.cisco19.rect;prIcon=virtual_private_network2;fillColor=#FAFAFA;strokeColor=#005073;" parent="1" vertex="1">
          <mxGeometry x="1490.0000000000002" y="220" width="102.4" height="80" as="geometry" />
        </mxCell>
        <mxCell id="Rn4BWPrNsbCr0oajYnuM-180" value="VPN 2 (for company&#39;s IT team)" style="text;html=1;align=center;verticalAlign=middle;resizable=0;points=[];autosize=1;strokeColor=none;fillColor=none;" parent="1" vertex="1">
          <mxGeometry x="1455" y="178" width="190" height="30" as="geometry" />
        </mxCell>
        <mxCell id="Rn4BWPrNsbCr0oajYnuM-181" value="" style="endArrow=none;html=1;fillColor=#f8cecc;strokeColor=#6C8EBF;strokeWidth=4;" parent="1" edge="1">
          <mxGeometry width="50" height="50" relative="1" as="geometry">
            <mxPoint x="1450" y="748" as="sourcePoint" />
            <mxPoint x="1450" y="610" as="targetPoint" />
          </mxGeometry>
        </mxCell>
        <mxCell id="Rn4BWPrNsbCr0oajYnuM-182" value="" style="points=[[0.015,0.015,0],[0.985,0.015,0],[0.985,0.985,0],[0.015,0.985,0],[0.25,0,0],[0.5,0,0],[0.75,0,0],[1,0.25,0],[1,0.5,0],[1,0.75,0],[0.75,1,0],[0.5,1,0],[0.25,1,0],[0,0.75,0],[0,0.5,0],[0,0.25,0]];verticalLabelPosition=bottom;html=1;verticalAlign=top;aspect=fixed;align=center;pointerEvents=1;shape=mxgraph.cisco19.rect;prIcon=virtual_private_network2;fillColor=#FAFAFA;strokeColor=#005073;" parent="1" vertex="1">
          <mxGeometry x="1410.0000000000002" y="750" width="102.4" height="80" as="geometry" />
        </mxCell>
        <mxCell id="Rn4BWPrNsbCr0oajYnuM-183" value="VPN 3&#39;" style="text;html=1;align=center;verticalAlign=middle;resizable=0;points=[];autosize=1;strokeColor=none;fillColor=none;" parent="1" vertex="1">
          <mxGeometry x="1430" y="830" width="60" height="30" as="geometry" />
        </mxCell>
        <mxCell id="Rn4BWPrNsbCr0oajYnuM-184" value="" style="endArrow=none;html=1;fillColor=#f8cecc;strokeColor=#6C8EBF;strokeWidth=4;entryX=1;entryY=0.5;entryDx=0;entryDy=0;entryPerimeter=0;" parent="1" target="Rn4BWPrNsbCr0oajYnuM-182" edge="1">
          <mxGeometry width="50" height="50" relative="1" as="geometry">
            <mxPoint x="1600" y="790" as="sourcePoint" />
            <mxPoint x="1460" y="620" as="targetPoint" />
          </mxGeometry>
        </mxCell>
        <mxCell id="Rn4BWPrNsbCr0oajYnuM-185" value="" style="points=[[0.015,0.015,0],[0.985,0.015,0],[0.985,0.985,0],[0.015,0.985,0],[0.25,0,0],[0.5,0,0],[0.75,0,0],[1,0.25,0],[1,0.5,0],[1,0.75,0],[0.75,1,0],[0.5,1,0],[0.25,1,0],[0,0.75,0],[0,0.5,0],[0,0.25,0]];verticalLabelPosition=bottom;html=1;verticalAlign=top;aspect=fixed;align=center;pointerEvents=1;shape=mxgraph.cisco19.rect;prIcon=virtual_private_network2;fillColor=#FAFAFA;strokeColor=#005073;" parent="1" vertex="1">
          <mxGeometry x="1600.0000000000002" y="750" width="102.4" height="80" as="geometry" />
        </mxCell>
        <mxCell id="Rn4BWPrNsbCr0oajYnuM-186" value="VPN 3 (For forensic investigators)" style="text;html=1;align=center;verticalAlign=middle;resizable=0;points=[];autosize=1;strokeColor=none;fillColor=none;" parent="1" vertex="1">
          <mxGeometry x="1560" y="830" width="200" height="30" as="geometry" />
        </mxCell>
        <mxCell id="Rn4BWPrNsbCr0oajYnuM-188" value="" style="endArrow=none;html=1;fillColor=#f8cecc;strokeColor=#6C8EBF;strokeWidth=4;" parent="1" edge="1">
          <mxGeometry width="50" height="50" relative="1" as="geometry">
            <mxPoint x="440" y="680" as="sourcePoint" />
            <mxPoint x="440" y="700" as="targetPoint" />
          </mxGeometry>
        </mxCell>
        <mxCell id="Rn4BWPrNsbCr0oajYnuM-187" value="" style="points=[[0.015,0.015,0],[0.985,0.015,0],[0.985,0.985,0],[0.015,0.985,0],[0.25,0,0],[0.5,0,0],[0.75,0,0],[1,0.25,0],[1,0.5,0],[1,0.75,0],[0.75,1,0],[0.5,1,0],[0.25,1,0],[0,0.75,0],[0,0.5,0],[0,0.25,0]];verticalLabelPosition=bottom;html=1;verticalAlign=top;aspect=fixed;align=center;pointerEvents=1;shape=mxgraph.cisco19.rect;prIcon=ssl_terminator;fillColor=#FAFAFA;strokeColor=#005073;" parent="1" vertex="1">
          <mxGeometry x="220" y="700" width="102.39" height="80" as="geometry" />
        </mxCell>
        <mxCell id="Rn4BWPrNsbCr0oajYnuM-189" value="" style="points=[[0.015,0.015,0],[0.985,0.015,0],[0.985,0.985,0],[0.015,0.985,0],[0.25,0,0],[0.5,0,0],[0.75,0,0],[1,0.25,0],[1,0.5,0],[1,0.75,0],[0.75,1,0],[0.5,1,0],[0.25,1,0],[0,0.75,0],[0,0.5,0],[0,0.25,0]];verticalLabelPosition=bottom;html=1;verticalAlign=top;aspect=fixed;align=center;pointerEvents=1;shape=mxgraph.cisco19.rect;prIcon=web_reputation_filtering;fillColor=#FAFAFA;strokeColor=#005073;" parent="1" vertex="1">
          <mxGeometry x="540" y="590" width="90" height="90" as="geometry" />
        </mxCell>
        <mxCell id="Rn4BWPrNsbCr0oajYnuM-190" value="" style="endArrow=none;html=1;fillColor=#f8cecc;strokeColor=#6C8EBF;strokeWidth=4;entryX=0.982;entryY=0.626;entryDx=0;entryDy=0;entryPerimeter=0;" parent="1" target="gTKwi0WtYb4K1l9GXwkQ-191" edge="1">
          <mxGeometry width="50" height="50" relative="1" as="geometry">
            <mxPoint x="930" y="526" as="sourcePoint" />
            <mxPoint x="940" y="540" as="targetPoint" />
          </mxGeometry>
        </mxCell>
        <mxCell id="Rn4BWPrNsbCr0oajYnuM-192" value="" style="points=[[0.015,0.015,0],[0.985,0.015,0],[0.985,0.985,0],[0.015,0.985,0],[0.25,0,0],[0.5,0,0],[0.75,0,0],[1,0.25,0],[1,0.5,0],[1,0.75,0],[0.75,1,0],[0.5,1,0],[0.25,1,0],[0,0.75,0],[0,0.5,0],[0,0.25,0]];verticalLabelPosition=bottom;html=1;verticalAlign=top;aspect=fixed;align=center;pointerEvents=1;shape=mxgraph.cisco19.rect;prIcon=ips_ids;fillColor=#FAFAFA;strokeColor=#005073;" parent="1" vertex="1">
          <mxGeometry x="390" y="700" width="102.39" height="80" as="geometry" />
        </mxCell>
        <mxCell id="Rn4BWPrNsbCr0oajYnuM-193" value="" style="endArrow=none;html=1;fillColor=#f8cecc;strokeColor=#6C8EBF;strokeWidth=4;entryX=0.559;entryY=-0.004;entryDx=0;entryDy=0;entryPerimeter=0;exitX=0.5;exitY=1;exitDx=0;exitDy=0;exitPerimeter=0;" parent="1" source="Rn4BWPrNsbCr0oajYnuM-187" target="gTKwi0WtYb4K1l9GXwkQ-204" edge="1">
          <mxGeometry width="50" height="50" relative="1" as="geometry">
            <mxPoint x="332" y="750" as="sourcePoint" />
            <mxPoint x="400" y="750" as="targetPoint" />
          </mxGeometry>
        </mxCell>
        <mxCell id="Rn4BWPrNsbCr0oajYnuM-194" value="" style="endArrow=none;html=1;fillColor=#f8cecc;strokeColor=#6C8EBF;strokeWidth=4;entryX=0.5;entryY=1;entryDx=0;entryDy=0;entryPerimeter=0;exitX=0.5;exitY=0;exitDx=0;exitDy=0;exitPerimeter=0;" parent="1" target="gTKwi0WtYb4K1l9GXwkQ-205" edge="1">
          <mxGeometry width="50" height="50" relative="1" as="geometry">
            <mxPoint x="440" y="899" as="sourcePoint" />
            <mxPoint x="441" y="890" as="targetPoint" />
          </mxGeometry>
        </mxCell>
      </root>
    </mxGraphModel>
  </diagram>
</mxfile>
